<?xml version="1.0" encoding="utf-8"?>
<!-- Generator: Adobe Illustrator 16.0.0, SVG Export Plug-In . SVG Version: 6.00 Build 0)  -->
<!DOCTYPE svg PUBLIC "-//W3C//DTD SVG 1.0//EN" "http://www.w3.org/TR/2001/REC-SVG-20010904/DTD/svg10.dtd">
<svg version="1.0" xmlns="http://www.w3.org/2000/svg" xmlns:xlink="http://www.w3.org/1999/xlink" x="0px" y="0px" width="26px"
	 height="26px" viewBox="0 0 26 26" enable-background="new 0 0 26 26" xml:space="preserve">
<g id="Layer_14_1_" opacity="0.9">
	<rect opacity="0" fill="#9E4222" width="26" height="26"/>
</g>
<g id="Layer_10">
	<g>
		<path fill="none" d="M23.806,19.278l-10.791-6.442L2.283,19.247c-0.666,0.487-0.306,1.387,0.414,1.393h20.685
			C24.056,20.666,24.466,19.706,23.806,19.278z"/>
		<path d="M24.858,17.775l-11.067-6.638v-0.698c0-0.698,1.212-0.864,1.813-1.925c0.362-0.625,0.448-1.163,0.448-1.756
			c0-0.785-0.71-3.257-3.184-3.257c-2.29,0-3.294,1.975-3.294,3.095c0,1.197,1.644,1.575,1.764,0.09
			c0.078-0.945,0.79-1.362,1.518-1.362c0.437,0,1.41,0.357,1.41,1.466c0,0,0.076,0.956-0.806,1.391c0,0-1.36,0.554-1.36,1.831v1.126
			L1.146,17.75c-1.262,0.794-1.262,2.116-1.022,2.964C0.348,21.541,1.092,22.5,2.728,22.5c1.894,0,20.681,0,20.681,0h0.006
			c1.456,0,2.27-0.985,2.496-1.809C26.148,19.838,25.948,18.433,24.858,17.775z M23.382,20.64H2.697
			c-0.72-0.006-1.08-0.906-0.414-1.393l10.731-6.412l10.791,6.442C24.466,19.706,24.056,20.666,23.382,20.64z"/>
	</g>
</g>
</svg>
