<?xml version="1.0" encoding="utf-8"?>
<!-- Generator: Adobe Illustrator 16.0.0, SVG Export Plug-In . SVG Version: 6.00 Build 0)  -->
<!DOCTYPE svg PUBLIC "-//W3C//DTD SVG 1.0//EN" "http://www.w3.org/TR/2001/REC-SVG-20010904/DTD/svg10.dtd">
<svg version="1.0" xmlns="http://www.w3.org/2000/svg" xmlns:xlink="http://www.w3.org/1999/xlink" x="0px" y="0px" width="26px"
	 height="26px" viewBox="0 0 26 26" enable-background="new 0 0 26 26" xml:space="preserve">
<g id="Layer_14_1_" opacity="0.9">
	<rect opacity="0" fill="#9E4222" width="26" height="26"/>
</g>
<g id="Layer_3">
	<g>
		<path d="M20,12.971L19.986,1.302c0-0.72-0.579-1.302-1.301-1.302c-0.716,0-1.297,0.582-1.297,1.302l-1.04,11.669
			c-0.004,0.051,0.032,0.086,0.075,0.086h3.494C19.964,13.057,20,13.021,20,12.971z"/>
		<path d="M17.49,13.418c-0.05,0-0.086,0.034-0.086,0.084v12.412c0,0.05,0.036,0.086,0.086,0.086h2.428
			C19.964,26,20,25.964,20,25.914V13.502c0-0.05-0.036-0.084-0.082-0.084H17.49z"/>
		<path d="M11.993,0.353h-1.234v7.371c0,0.079-0.062,0.142-0.143,0.142H9.92c-0.075,0-0.14-0.063-0.14-0.142V0.353H8.593v7.371
			c0,0.079-0.063,0.142-0.145,0.142H7.752c-0.074,0-0.139-0.063-0.139-0.142V0.353H6.642c-0.133,0-0.251,0.115-0.255,0.25L6,9.75
			C5.997,9.885,6.097,9.995,6.234,9.995h1.786v15.919c0,0.05,0.036,0.086,0.082,0.086h2.428c0.051,0,0.086-0.036,0.086-0.086V9.995
			h1.788c0.133,0,0.236-0.109,0.229-0.245l-0.381-9.146C12.244,0.467,12.126,0.353,11.993,0.353z"/>
	</g>
</g>
</svg>
