<?xml version="1.0" encoding="utf-8"?>
<!-- Generator: Adobe Illustrator 16.0.0, SVG Export Plug-In . SVG Version: 6.00 Build 0)  -->
<!DOCTYPE svg PUBLIC "-//W3C//DTD SVG 1.0//EN" "http://www.w3.org/TR/2001/REC-SVG-20010904/DTD/svg10.dtd">
<svg version="1.0" xmlns="http://www.w3.org/2000/svg" xmlns:xlink="http://www.w3.org/1999/xlink" x="0px" y="0px" width="45px"
	 height="45px" viewBox="0 0 45 45" enable-background="new 0 0 45 45" xml:space="preserve">
<g id="Layer_9" display="none">
	<g display="inline">
		<path d="M21.425,34.749c0,0,0-2.237,0-2.685c0-1.818,0.301-2.537,2.332-3.885c1.062-0.704,1.753-1.167,1.753-2.21
			c0-1.233-0.885-2.151-2.621-2.151c-1.777,0-2.703,1.114-2.703,2.781c0,0.408,0,1.125,0,1.125H17.07c0,0,0-1.153,0-1.506
			c0-2.679,2.435-5.443,5.819-5.443c3.481,0,5.876,2.385,5.876,5.371c0,1.964-0.82,2.814-3.058,4.463
			c-1.048,0.771-1.185,0.9-1.185,2.01c0,0.328,0,2.13,0,2.13H21.425z"/>
		<rect x="21.425" y="35.934" width="3.119" height="3.104"/>
		<path d="M35.183,42.884H10.652c-0.392,0-0.71-0.318-0.71-0.71V17.638c0-0.392,0.318-0.71,0.71-0.71h24.531
			c0.392,0,0.71,0.318,0.71,0.71v24.536C35.893,42.565,35.575,42.884,35.183,42.884z M11.362,41.464h23.111V18.348H11.362V41.464z"
			/>
	</g>
</g>
<g id="Layer_8" display="none">
	<g display="inline">
		<path d="M14.627,33.714c0,0,0.267,0.022,0.267,0.111c0,0.244,0,7.82,0,7.82s0.017,0.053,0.052,0.053c0.194,0,0.862,0,0.885,0
			c0.036,0,0.036-0.048,0.036-0.048s0.731-7.554,0.835-7.833c0,0,0.011-0.059,0.094-0.059c0.136,0,0.901,0.008,1.266,0
			c0.064,0,0.079-0.045,0.064-0.064c-0.013-0.097-1.754-6.508-1.784-6.874c-0.012-0.188,0.141-0.974,0.24-1.2
			c0.081-0.223,0.214-0.209,0.313-0.114c0.123,0.114,1.895,4.986,1.981,5.091c0.082,0.108,0.956-0.149,0.956-0.302
			c-0.009-0.15-2.062-7.29-2.291-7.67c-0.219-0.353-1.445-0.569-2.848-0.569h-0.066h-0.009h-0.066c-1.403,0-2.638,0.217-2.846,0.569
			c-0.233,0.38-2.282,7.52-2.282,7.67c-0.009,0.152,0.866,0.41,0.952,0.302c0.086-0.104,1.852-4.977,1.971-5.091
			c0.108-0.095,0.227-0.108,0.322,0.114c0.088,0.227,0.251,1.012,0.235,1.2c-0.027,0.366-1.782,6.777-1.803,6.874
			c-0.003,0.02,0.005,0.064,0.073,0.064c0.365,0.008,1.136,0,1.28,0c0.077,0,0.091,0.059,0.091,0.059
			c0.102,0.279,0.832,7.833,0.832,7.833s0,0.048,0.037,0.048c0.031,0,0.693,0,0.884,0c0.034,0,0.054-0.053,0.054-0.053
			s0-7.576,0-7.82c0-0.089,0.266-0.111,0.266-0.111H14.627"/>
		<path d="M13.446,18.587c-0.323,0.366-0.373,0.927-0.336,1.45c0.084,1.013,0.51,1.938,1.748,1.77
			c1.38-0.197,1.696-2.674,0.646-3.437c-0.329-0.243-0.721-0.257-1.175-0.257C13.969,18.207,13.694,18.307,13.446,18.587"/>
		<path d="M30.117,18.587c-0.322,0.366-0.372,0.935-0.34,1.459c0.091,1.004,0.513,1.94,1.75,1.761
			c1.38-0.197,1.696-2.674,0.653-3.437c-0.333-0.243-0.723-0.257-1.188-0.257C30.643,18.207,30.369,18.307,30.117,18.587"/>
		<path d="M28.323,22.639c-0.349,0.546-0.488,1.35-0.649,1.988c-0.402,1.661-0.769,3.372-1.081,5.08
			c-0.067,0.366-0.355,1.328-0.214,1.675c0.025,0.03,0.047,0.056,0.071,0.086c0.153,0.092,1.01,0.321,1.175,0.164
			c0.251-0.23,0.292-0.883,0.388-1.209c0.384-1.492,0.77-2.987,1.147-4.477c0.009,0,0.009,0,0.024,0
			c0.106,0.757,0.22,1.521,0.333,2.279c-0.769,4.479-2.301,13.464-2.301,13.464s1.236,0,1.849,0c0.766-3.137,1.525-6.283,2.28-9.434
			c0.014,0,0.018,0,0.021,0c0.771,3.105,2.362,9.434,2.362,9.434s1.495,0,1.812,0c-0.197-1.192-0.392-2.394-0.585-3.586
			c-0.575-3.303-1.138-6.605-1.7-9.913c0.107-0.744,0.226-1.501,0.335-2.244h0.017c0.117,0.413,0.224,0.824,0.339,1.24
			c0.293,1.156,0.582,2.312,0.876,3.469c0.073,0.28,0.114,0.774,0.316,0.984c0.181,0.186,1.049-0.03,1.201-0.167
			c0.13-0.107,0.047-0.356,0.027-0.487c-0.379-2.232-0.805-4.518-1.376-6.687c-0.139-0.515-0.227-1.372-0.63-1.76
			C33.788,21.986,28.749,21.976,28.323,22.639"/>
		<path d="M23.63,41.698V18.193c0-0.045-0.044-0.08-0.079-0.08h-1.307c-0.041,0-0.071,0.035-0.071,0.08v23.505H23.63z"/>
	</g>
</g>
<g id="Layer_7" display="none">
	<g display="inline">
		<path d="M37.129,17.271H8.708c-0.614,0-1.124,0.499-1.124,1.111v23.045c0,0.612,0.51,1.114,1.124,1.114h28.421
			c0.63,0,1.123-0.502,1.123-1.114V18.382C38.252,17.77,37.759,17.271,37.129,17.271z M36.027,40.314H9.824V19.497h26.203V40.314z"
			/>
		<path d="M35.124,31.194l-1.182-1.176c0,0-3.167,3.164-3.894,3.896V22.739H28.38v11.175c-0.73-0.731-3.899-3.901-3.899-3.901
			l-1.177,1.182l5.918,5.908"/>
		<path d="M11.2,28.415l1.169,1.17c0,0,3.185-3.166,3.917-3.901v11.173h1.664V25.684c0.729,0.735,3.898,3.901,3.898,3.901
			l1.171-1.17l-5.913-5.92"/>
	</g>
</g>
<g id="Layer_6" display="none">
	<g display="inline">
		<polygon points="30.363,15.442 30.363,22.879 23.027,22.879 23.027,30.212 15.668,30.212 15.572,37.547 8.126,37.547 
			8.126,44.878 8.126,45.025 37.709,45.025 37.709,15.442 		"/>
		<path display="none" d="M32.953,41.73l0.003-1.838c0,0-4.998-0.014-6.151-0.014l8.786-8.78l-1.316-1.309l-8.772,8.782
			c0.005-1.145,0.005-6.129,0.005-6.129h-1.844l-0.003,9.295"/>
		<path d="M18.952,26.723l0.006-1.838c0,0-4.997-0.015-6.151-0.015l8.784-8.776l-1.313-1.309l-8.774,8.782
			c0.006-1.146,0.006-6.132,0.006-6.132H9.664l-0.002,9.296"/>
	</g>
</g>
<g id="Layer_5">
	<g>
		<g>
			<path d="M36.207,43.963H9.628c-0.425,0-0.769-0.344-0.769-0.769V16.617c0-0.425,0.344-0.769,0.769-0.769h26.578
				c0.425,0,0.769,0.344,0.769,0.769v26.577C36.975,43.619,36.631,43.963,36.207,43.963z M10.397,42.425h25.041V17.387H10.397
				V42.425z"/>
		</g>
		<path d="M28.336,20.882c0-0.554-0.448-1.003-1.007-1.003c-0.558,0-1.006,0.449-1.006,1.003l-0.807,9.002
			c-0.004,0.039,0.024,0.066,0.058,0.066h2.709c0.036,0,0.063-0.027,0.063-0.066L28.336,20.882z"/>
		<path d="M21.071,26.961c0-0.039-0.027-0.066-0.066-0.066h-1.883c-0.036,0-0.063,0.027-0.063,0.066v12.905
			c0,0.039,0.027,0.067,0.063,0.067h1.883c0.039,0,0.066-0.028,0.066-0.067V26.961z"/>
		<path d="M28.347,30.294c0-0.039-0.027-0.066-0.063-0.066h-1.882c-0.039,0-0.067,0.027-0.067,0.066v9.572
			c0,0.039,0.028,0.067,0.067,0.067h1.882c0.036,0,0.063-0.028,0.063-0.067V30.294z"/>
		<path d="M22.339,20.344c-0.007-0.104-0.098-0.193-0.201-0.193h-0.956v5.685c0,0.061-0.05,0.111-0.111,0.111h-0.54
			c-0.059,0-0.108-0.051-0.108-0.111V20.15h-0.921v5.685c0,0.061-0.05,0.111-0.111,0.111h-0.54c-0.059,0-0.108-0.051-0.108-0.111
			V20.15h-0.753c-0.104,0-0.194,0.089-0.198,0.193l-0.3,7.056c-0.002,0.104,0.075,0.188,0.182,0.188h4.785
			c0.103,0,0.183-0.084,0.178-0.188L22.339,20.344z"/>
	</g>
</g>
<g id="Layer_4" display="none">
	<g display="inline">
		<polygon points="30.363,15.114 30.363,22.552 23.027,22.552 23.027,29.884 15.668,29.884 15.572,37.218 8.126,37.218 8.126,44.55 
			8.126,44.697 37.709,44.697 37.709,15.114 		"/>
		<path d="M11.65,15.123l-0.006,1.839c0,0,4.996,0.014,6.15,0.014l-8.783,8.776l1.312,1.309l8.775-8.782
			c-0.006,1.146-0.006,6.132-0.006,6.132h1.844l0.002-9.296"/>
	</g>
</g>
<g id="Layer_3" display="none">
	<g display="inline">
		<path d="M35.69,43.404H10.145c-0.4,0-0.724-0.324-0.724-0.725V17.131c0-0.399,0.324-0.724,0.724-0.724H35.69
			c0.4,0,0.724,0.324,0.724,0.724V42.68C36.415,43.08,36.09,43.404,35.69,43.404z M10.869,41.956h24.098V17.855H10.869V41.956z"/>
		<path id="L1_NE_Coat_Check_2_" d="M12.755,35.857c0.178,0.639,0.765,1.379,2.055,1.379c1.495,0,16.321,0,16.321,0h0.004
			c1.15,0,1.791-0.76,1.971-1.397c0.188-0.657,0.031-1.741-0.829-2.249l-8.735-5.122v-0.54c0-0.538,0.957-0.666,1.432-1.484
			c0.286-0.482,0.354-0.898,0.354-1.355c0-0.605-0.561-2.514-2.513-2.514c-1.808,0-2.6,1.523-2.6,2.389
			c0,0.923,1.297,1.215,1.391,0.069c0.062-0.729,0.624-1.052,1.198-1.052c0.345,0,1.112,0.275,1.112,1.132
			c0,0,0.062,0.737-0.635,1.073c0,0-1.073,0.428-1.073,1.412v0.87l-8.646,5.103C12.566,34.184,12.566,35.203,12.755,35.857z
			 M14.46,34.727l8.469-4.949l8.516,4.972c0.521,0.33,0.197,1.07-0.335,1.051H14.787C14.219,35.797,13.933,35.102,14.46,34.727z"/>
	</g>
</g>
<g id="Layer_2" display="none">
	<g display="inline">
		<path d="M36.242,43.231H9.593V16.579h26.648V43.231z M11.023,41.802h23.789V18.009H11.023V41.802z"/>
		<polygon points="31.347,27.459 25.365,27.459 25.365,21.478 20.472,21.478 20.472,27.459 14.488,27.459 14.488,32.352 
			20.472,32.352 20.472,38.333 25.365,38.333 25.365,32.352 31.347,32.352 		"/>
	</g>
</g>
<g id="Layer_1" display="none">
	<path id="L1_SE_Shop_4_" display="inline" d="M27.179,23.029L27.179,23.029c0-2.354-1.912-4.268-4.265-4.268
		c-2.349,0-4.263,1.913-4.263,4.268l0,0h-4.048l1.155,18.02h14.312l1.159-18.02H27.179z M19.621,23.029
		c0-1.822,1.48-3.297,3.294-3.297c1.818,0,3.296,1.475,3.296,3.297l0,0H19.621L19.621,23.029z"/>
</g>
</svg>
