<?xml version="1.0" encoding="utf-8"?>
<!-- Generator: Adobe Illustrator 16.0.0, SVG Export Plug-In . SVG Version: 6.00 Build 0)  -->
<!DOCTYPE svg PUBLIC "-//W3C//DTD SVG 1.0//EN" "http://www.w3.org/TR/2001/REC-SVG-20010904/DTD/svg10.dtd">
<svg version="1.0" xmlns="http://www.w3.org/2000/svg" xmlns:xlink="http://www.w3.org/1999/xlink" x="0px" y="0px" width="26px"
	 height="26px" viewBox="0 0 26 26" enable-background="new 0 0 26 26" xml:space="preserve">
<g id="Layer_14_1_" opacity="0.9">
	<rect opacity="0" fill="#9E4222" width="26" height="26"/>
</g>
<g id="Layer_4">
	<g>
		<path fill="none" d="M1.793,21.166h22.414V4.833H1.793V21.166z M14.252,13.144c0,0,2.797,2.86,3.441,3.521V6.581h1.473v10.084
			c0.641-0.661,3.436-3.516,3.436-3.516l1.043,1.061l-5.209,5.331l-5.223-5.331L14.252,13.144z M7.745,6.361l5.217,5.341
			l-1.033,1.055c0,0-2.796-2.857-3.44-3.52v10.082H7.02V9.237c-0.646,0.663-3.455,3.52-3.455,3.52l-1.033-1.055L7.745,6.361z"/>
		<path d="M0,3v20h26V3H0z M24.207,21.166H1.793V4.833h22.414V21.166z"/>
		<path d="M23.645,14.21l-1.043-1.061c0,0-2.795,2.855-3.436,3.516V6.581h-1.473v10.084c-0.645-0.661-3.441-3.521-3.441-3.521
			l-1.039,1.066l5.223,5.331L23.645,14.21z"/>
		<path d="M7.02,9.237v10.082h1.469V9.237c0.645,0.663,3.44,3.52,3.44,3.52l1.033-1.055L7.745,6.361l-5.214,5.341l1.033,1.055
			C3.564,12.757,6.374,9.9,7.02,9.237z"/>
	</g>
</g>
</svg>
