<?xml version="1.0" encoding="utf-8"?>
<!-- Generator: Adobe Illustrator 16.0.0, SVG Export Plug-In . SVG Version: 6.00 Build 0)  -->
<!DOCTYPE svg PUBLIC "-//W3C//DTD SVG 1.0//EN" "http://www.w3.org/TR/2001/REC-SVG-20010904/DTD/svg10.dtd">
<svg version="1.0" xmlns="http://www.w3.org/2000/svg" xmlns:xlink="http://www.w3.org/1999/xlink" x="0px" y="0px"
	 width="30.668px" height="30.24px" viewBox="0 0 30.668 30.24" enable-background="new 0 0 30.668 30.24" xml:space="preserve">
<g id="Layer_9" display="none">
	<g display="inline">
		<path d="M13.842,19.963c0,0,0-2.237,0-2.685c0-1.818,0.301-2.537,2.332-3.885c1.062-0.704,1.753-1.167,1.753-2.21
			c0-1.233-0.885-2.151-2.621-2.151c-1.777,0-2.703,1.114-2.703,2.781c0,0.408,0,1.125,0,1.125H9.486c0,0,0-1.153,0-1.506
			c0-2.679,2.435-5.443,5.819-5.443c3.481,0,5.876,2.385,5.876,5.371c0,1.964-0.82,2.814-3.058,4.463
			c-1.048,0.771-1.185,0.9-1.185,2.01c0,0.328,0,2.13,0,2.13H13.842z"/>
		<rect x="13.842" y="21.148" width="3.119" height="3.104"/>
		<path d="M27.6,28.098H3.068c-0.392,0-0.71-0.318-0.71-0.71V2.852c0-0.392,0.318-0.71,0.71-0.71H27.6c0.392,0,0.71,0.318,0.71,0.71
			v24.536C28.31,27.78,27.992,28.098,27.6,28.098z M3.778,26.678H26.89V3.562H3.778V26.678z"/>
	</g>
</g>
<g id="Layer_8" display="none">
	<g display="inline">
		<path d="M7.043,18.928c0,0,0.267,0.022,0.267,0.111c0,0.244,0,7.82,0,7.82s0.017,0.053,0.052,0.053c0.194,0,0.862,0,0.885,0
			c0.036,0,0.036-0.047,0.036-0.047s0.731-7.554,0.835-7.833c0,0,0.011-0.059,0.094-0.059c0.136,0,0.901,0.008,1.266,0
			c0.064,0,0.079-0.045,0.064-0.064c-0.013-0.097-1.754-6.508-1.784-6.875c-0.012-0.188,0.141-0.973,0.24-1.2
			c0.081-0.223,0.214-0.208,0.313-0.114c0.123,0.114,1.895,4.986,1.981,5.091c0.082,0.108,0.956-0.149,0.956-0.302
			c-0.009-0.15-2.062-7.291-2.291-7.67C9.739,7.487,8.512,7.271,7.11,7.271H7.043H7.035H6.968c-1.403,0-2.638,0.216-2.846,0.569
			c-0.233,0.38-2.282,7.52-2.282,7.67c-0.009,0.152,0.866,0.41,0.952,0.302c0.086-0.105,1.852-4.977,1.971-5.091
			c0.108-0.095,0.227-0.109,0.322,0.114c0.088,0.227,0.251,1.012,0.235,1.2c-0.027,0.366-1.782,6.777-1.803,6.875
			c-0.003,0.019,0.005,0.064,0.073,0.064c0.365,0.008,1.136,0,1.28,0c0.077,0,0.091,0.059,0.091,0.059
			c0.102,0.28,0.832,7.833,0.832,7.833s0,0.047,0.037,0.047c0.031,0,0.693,0,0.884,0c0.034,0,0.054-0.053,0.054-0.053
			s0-7.576,0-7.82c0-0.089,0.266-0.111,0.266-0.111H7.043"/>
		<path d="M5.863,3.801C5.54,4.168,5.49,4.728,5.527,5.252c0.084,1.012,0.51,1.938,1.748,1.769c1.38-0.197,1.696-2.674,0.646-3.436
			C7.592,3.341,7.201,3.328,6.747,3.328C6.385,3.422,6.111,3.521,5.863,3.801"/>
		<path d="M22.534,3.801c-0.322,0.367-0.372,0.935-0.34,1.459c0.091,1.004,0.513,1.941,1.75,1.761
			c1.38-0.197,1.696-2.674,0.653-3.436c-0.333-0.244-0.723-0.257-1.188-0.257C23.059,3.422,22.786,3.521,22.534,3.801"/>
		<path d="M20.74,7.853c-0.349,0.546-0.488,1.35-0.649,1.988c-0.402,1.661-0.769,3.372-1.081,5.081
			c-0.067,0.366-0.355,1.328-0.214,1.674c0.025,0.03,0.047,0.056,0.071,0.086c0.153,0.092,1.01,0.322,1.175,0.164
			c0.251-0.23,0.292-0.882,0.388-1.209c0.384-1.492,0.77-2.987,1.147-4.476c0.009,0,0.009,0,0.024,0
			c0.106,0.757,0.22,1.52,0.333,2.279c-0.769,4.479-2.301,13.463-2.301,13.463s1.236,0,1.849,0c0.766-3.136,1.525-6.283,2.28-9.434
			c0.014,0,0.018,0,0.021,0c0.771,3.105,2.362,9.434,2.362,9.434s1.495,0,1.812,0c-0.197-1.192-0.392-2.394-0.585-3.585
			c-0.575-3.303-1.138-6.606-1.7-9.914c0.107-0.744,0.226-1.5,0.335-2.244h0.017c0.117,0.413,0.224,0.824,0.339,1.24
			c0.293,1.156,0.582,2.312,0.876,3.469c0.073,0.28,0.114,0.774,0.316,0.985c0.181,0.186,1.049-0.031,1.201-0.167
			c0.13-0.107,0.047-0.357,0.027-0.488c-0.379-2.232-0.805-4.517-1.376-6.686c-0.139-0.515-0.227-1.373-0.63-1.76
			C26.205,7.201,21.166,7.19,20.74,7.853"/>
		<path d="M16.046,26.913V3.408c0-0.044-0.044-0.08-0.079-0.08h-1.307c-0.041,0-0.071,0.036-0.071,0.08v23.505H16.046z"/>
	</g>
</g>
<g id="Layer_7" display="none">
	<g display="inline">
		<path d="M29.545,2.485H1.124C0.51,2.485,0,2.984,0,3.596v23.045c0,0.612,0.51,1.114,1.124,1.114h28.421
			c0.63,0,1.123-0.502,1.123-1.114V3.596C30.668,2.984,30.175,2.485,29.545,2.485z M28.443,25.529H2.24V4.711h26.203V25.529z"/>
		<path d="M27.54,16.409l-1.182-1.176c0,0-3.167,3.164-3.894,3.896V7.954h-1.668v11.175c-0.73-0.731-3.899-3.901-3.899-3.901
			l-1.177,1.182l5.918,5.908"/>
		<path d="M3.616,13.629l1.169,1.17c0,0,3.185-3.166,3.917-3.901v11.173h1.664V10.898c0.729,0.735,3.898,3.901,3.898,3.901
			l1.171-1.17l-5.913-5.92"/>
	</g>
</g>
<g id="Layer_6" display="none">
	<g display="inline">
		<polygon points="22.78,0.657 22.78,8.094 15.444,8.094 15.444,15.427 8.084,15.427 7.989,22.762 0.542,22.762 0.542,30.093 
			0.542,30.24 30.125,30.24 30.125,0.657 		"/>
		<path display="none" d="M25.37,26.945l0.003-1.838c0,0-4.998-0.014-6.151-0.014l8.786-8.78l-1.316-1.309l-8.772,8.782
			c0.005-1.145,0.005-6.129,0.005-6.129H16.08l-0.003,9.295"/>
		<path d="M11.369,11.938l0.006-1.838c0,0-4.997-0.015-6.151-0.015l8.784-8.776L12.694,0L3.919,8.782
			C3.925,7.637,3.925,2.65,3.925,2.65H2.081l-0.002,9.296"/>
	</g>
</g>
<g id="Layer_5" display="none">
	<g display="inline">
		<g>
			<path d="M28.623,29.178H2.045c-0.425,0-0.769-0.344-0.769-0.769V1.832c0-0.425,0.344-0.769,0.769-0.769h26.578
				c0.425,0,0.769,0.344,0.769,0.769v26.577C29.392,28.833,29.048,29.178,28.623,29.178z M2.813,27.64h25.041V2.601H2.813V27.64z"/>
		</g>
		<path d="M20.753,6.097c0-0.554-0.448-1.003-1.007-1.003c-0.558,0-1.006,0.449-1.006,1.003l-0.807,9.001
			c-0.004,0.039,0.024,0.066,0.058,0.066H20.7c0.036,0,0.063-0.027,0.063-0.066L20.753,6.097z"/>
		<path d="M13.487,12.175c0-0.039-0.027-0.066-0.066-0.066h-1.883c-0.036,0-0.063,0.028-0.063,0.066v12.906
			c0,0.039,0.027,0.067,0.063,0.067h1.883c0.039,0,0.066-0.028,0.066-0.067V12.175z"/>
		<path d="M20.764,15.508c0-0.039-0.027-0.066-0.063-0.066h-1.882c-0.039,0-0.067,0.027-0.067,0.066v9.573
			c0,0.039,0.028,0.067,0.067,0.067H20.7c0.036,0,0.063-0.028,0.063-0.067V15.508z"/>
		<path d="M14.756,5.559c-0.007-0.105-0.098-0.194-0.201-0.194h-0.956v5.685c0,0.061-0.05,0.111-0.111,0.111h-0.54
			c-0.059,0-0.108-0.05-0.108-0.111V5.365h-0.921v5.685c0,0.061-0.05,0.111-0.111,0.111h-0.54c-0.059,0-0.108-0.05-0.108-0.111
			V5.365h-0.753c-0.104,0-0.194,0.089-0.198,0.194l-0.3,7.055c-0.002,0.105,0.075,0.188,0.182,0.188h4.785
			c0.103,0,0.183-0.083,0.178-0.188L14.756,5.559z"/>
	</g>
</g>
<g id="Layer_4" display="none">
	<g display="inline">
		<polygon points="22.78,0.329 22.78,7.766 15.444,7.766 15.444,15.098 8.084,15.098 7.989,22.432 0.542,22.432 0.542,29.764 
			0.542,29.912 30.125,29.912 30.125,0.329 		"/>
		<path d="M4.067,0.337L4.061,2.176c0,0,4.996,0.014,6.15,0.014l-8.783,8.776l1.312,1.309l8.775-8.782
			C11.51,4.638,11.51,9.625,11.51,9.625h1.844l0.002-9.296"/>
	</g>
</g>
<g id="Layer_3" display="none">
	<g display="inline">
		<path d="M28.107,28.619H2.561c-0.4,0-0.724-0.324-0.724-0.724V2.346c0-0.4,0.324-0.724,0.724-0.724h25.546
			c0.4,0,0.724,0.324,0.724,0.724v25.549C28.831,28.294,28.507,28.619,28.107,28.619z M3.285,27.17h24.098V3.07H3.285V27.17z"/>
		<path id="L1_NE_Coat_Check_2_" d="M5.171,21.072c0.178,0.639,0.765,1.379,2.055,1.379c1.495,0,16.321,0,16.321,0h0.004
			c1.15,0,1.791-0.76,1.971-1.397c0.188-0.657,0.031-1.741-0.829-2.249l-8.735-5.122v-0.54c0-0.538,0.957-0.666,1.432-1.484
			c0.286-0.482,0.354-0.898,0.354-1.355c0-0.605-0.561-2.514-2.513-2.514c-1.808,0-2.6,1.523-2.6,2.389
			c0,0.923,1.297,1.215,1.391,0.069c0.062-0.729,0.624-1.052,1.198-1.052c0.345,0,1.112,0.275,1.112,1.132
			c0,0,0.062,0.737-0.635,1.073c0,0-1.073,0.428-1.073,1.412v0.87l-8.646,5.103C4.983,19.398,4.983,20.418,5.171,21.072z
			 M6.876,19.941l8.469-4.949l8.516,4.972c0.521,0.33,0.197,1.07-0.335,1.051H7.204C6.635,21.012,6.349,20.316,6.876,19.941z"/>
	</g>
</g>
<g id="Layer_2" display="none">
	<g display="inline">
		<path d="M28.658,28.446H2.01V1.794h26.648V28.446z M3.439,27.017h23.789V3.224H3.439V27.017z"/>
		<polygon points="23.764,12.674 17.781,12.674 17.781,6.692 12.889,6.692 12.889,12.674 6.904,12.674 6.904,17.566 12.889,17.566 
			12.889,23.548 17.781,23.548 17.781,17.566 23.764,17.566 		"/>
	</g>
</g>
<g id="Layer_1">
	<path id="L1_SE_Shop_4_" d="M19.596,8.244L19.596,8.244c0-2.354-1.912-4.268-4.265-4.268c-2.349,0-4.263,1.913-4.263,4.268l0,0
		H7.021l1.155,18.02h14.312l1.159-18.02H19.596z M12.037,8.244c0-1.822,1.48-3.297,3.294-3.297c1.818,0,3.296,1.475,3.296,3.297l0,0
		H12.037L12.037,8.244z"/>
</g>
</svg>
