<?xml version="1.0" encoding="utf-8"?>
<!-- Generator: Adobe Illustrator 16.0.0, SVG Export Plug-In . SVG Version: 6.00 Build 0)  -->
<!DOCTYPE svg PUBLIC "-//W3C//DTD SVG 1.0//EN" "http://www.w3.org/TR/2001/REC-SVG-20010904/DTD/svg10.dtd">
<svg version="1.0" xmlns="http://www.w3.org/2000/svg" xmlns:xlink="http://www.w3.org/1999/xlink" x="0px" y="0px" width="26px"
	 height="26px" viewBox="0 0 26 26" enable-background="new 0 0 26 26" xml:space="preserve">
<g id="Layer_14_1_" opacity="0.9">
	<rect opacity="0" fill="#9E4222" width="26" height="26"/>
</g>
<g id="Layer_6">
	<g>
		<path d="M12.967,2.5C8.914,2.5,6,5.679,6,8.76c0,0.406,0,1.731,0,1.731h3.73c0,0,0-0.824,0-1.293C9.73,7.281,10.839,6,12.967,6
			c2.079,0,3.139,1.055,3.139,2.474c0,1.198-0.828,1.73-2.101,2.541c-2.431,1.549-2.791,2.376-2.791,4.467c0,0.514,0,3.086,0,3.086
			h3.708c0,0,0-2.072,0-2.449c0-1.276,0.163-1.424,1.42-2.312C19.018,11.913,20,10.935,20,8.677C20,5.242,17.134,2.5,12.967,2.5z"/>
		<rect x="11.214" y="19.932" width="3.733" height="3.568"/>
	</g>
</g>
</svg>
