<?xml version="1.0" encoding="utf-8"?>
<!-- Generator: Adobe Illustrator 16.0.0, SVG Export Plug-In . SVG Version: 6.00 Build 0)  -->
<!DOCTYPE svg PUBLIC "-//W3C//DTD SVG 1.0//EN" "http://www.w3.org/TR/2001/REC-SVG-20010904/DTD/svg10.dtd">
<svg version="1.0" id="Layer_13" xmlns="http://www.w3.org/2000/svg" xmlns:xlink="http://www.w3.org/1999/xlink" x="0px" y="0px"
	 width="26px" height="26px" viewBox="0 0 26 26" enable-background="new 0 0 26 26" xml:space="preserve">
<g>
	<path fill="none" d="M12.999,1.451C6.631,1.451,1.45,6.63,1.45,12.998c0,6.37,5.181,11.551,11.549,11.551
		c6.369,0,11.551-5.182,11.551-11.551C24.55,6.63,19.368,1.451,12.999,1.451z M14.27,20.473l-1.521-4.851L8.08,21.569l3.03-7.478
		l-5.66,0.134l4.989-1.56L4.426,7.955l7.496,3.048l-0.128-5.642l1.555,4.999l4.664-5.935l-3.001,7.438l5.557-0.116l-4.863,1.522
		l5.871,4.62l-7.425-2.99L14.27,20.473z"/>
	<path fill="#010101" d="M12.999,0C5.831,0,0,5.831,0,12.998C0,20.167,5.831,26,12.999,26C20.168,26,26,20.167,26,12.998
		C26,5.831,20.168,0,12.999,0z M12.999,24.549c-6.368,0-11.549-5.182-11.549-11.551c0-6.367,5.181-11.546,11.549-11.546
		c6.369,0,11.551,5.179,11.551,11.546C24.55,19.367,19.368,24.549,12.999,24.549z"/>
	<polygon fill="#FFFFFF" points="11.922,11.003 4.426,7.955 10.439,12.666 11.949,12.194 	"/>
	<polygon fill="#FFFFFF" points="15.705,13.269 14.128,13.763 14.151,14.898 21.576,17.888 	"/>
	<polygon fill="#FFFFFF" points="15.012,11.862 18.013,4.425 13.349,10.36 13.824,11.887 	"/>
	<polygon fill="#FFFFFF" points="11.11,14.092 8.08,21.569 12.748,15.622 12.26,14.065 	"/>
	<polygon fill="#010101" points="15.705,13.269 20.568,11.746 15.012,11.862 13.824,11.887 13.349,10.36 11.794,5.361 
		11.922,11.003 11.949,12.194 10.439,12.666 5.45,14.226 11.11,14.092 12.26,14.065 12.748,15.622 14.27,20.473 14.151,14.898 
		14.128,13.763 	"/>
</g>
</svg>
