<?xml version="1.0" encoding="utf-8"?>
<!-- Generator: Adobe Illustrator 16.0.0, SVG Export Plug-In . SVG Version: 6.00 Build 0)  -->
<!DOCTYPE svg PUBLIC "-//W3C//DTD SVG 1.0//EN" "http://www.w3.org/TR/2001/REC-SVG-20010904/DTD/svg10.dtd">
<svg version="1.0" xmlns="http://www.w3.org/2000/svg" xmlns:xlink="http://www.w3.org/1999/xlink" x="0px" y="0px" width="26px"
	 height="26px" viewBox="0 0 26 26" enable-background="new 0 0 26 26" xml:space="preserve">
<g id="Layer_14_1_" opacity="0.9">
	<rect opacity="0" fill="#9E4222" width="26" height="26"/>
</g>
<g id="Layer_8">
	<g>
		<path fill="#FFFFFF" d="M16.165,9.727c-0.183-0.467-0.366-0.935-0.548-1.402l-0.334-0.845c-0.273-0.698-0.391-1.409-0.358-2.107
			c0-0.025,0-0.051,0-0.07c-0.065,0.057-0.137,0.115-0.216,0.16c-0.855,0.493-1.437,0.429-2.043-0.179l-0.155-0.161
			c-0.099-0.103-0.203-0.205-0.313-0.307c-0.041-0.045-0.093-0.083-0.139-0.115C12.015,4.79,11.987,4.86,11.975,4.93
			c-0.046,0.173-0.079,0.353-0.11,0.532c-0.04,0.16-0.072,0.32-0.099,0.479l-0.052,0.231c-0.054,0.256-0.105,0.525-0.216,0.781
			c-0.072,0.179-0.144,0.353-0.209,0.525c-0.268,0.686-0.471,1.332-0.613,1.973c-0.157,0.698-0.183,1.319-0.084,1.895
			c0.089,0.538,0.142,1.083,0.183,1.607l0.018,0.103c0.053,0.551-0.024,1.057-0.228,1.543c-0.162,0.416-0.319,0.858-0.47,1.351
			c-0.32,1.025-0.431,1.991-0.34,2.952c0.02,0.231,0.053,0.461,0.098,0.706c0.08,0.409,0.203,0.845,0.371,1.345
			c0.23,0.685,0.464,1.178,0.745,1.601c0.118,0.166,0.241,0.332,0.4,0.435c0.409,0.256,0.867,0.403,1.336,0.442
			c0.314,0.026,0.456,0.07,0.574-0.397c0.072-0.282,0.111-0.577,0.15-0.884l0.052-0.308c0.021-0.147,0.04-0.294,0.053-0.448
			l0.052-0.462l0.548-0.057l0.112,0.365l0.052,0.41c0.039,0.32,0.08,0.641,0.124,0.96c0.025,0.198,0.046,0.339,0.085,0.454
			c0.078-0.057,0.132-0.108,0.157-0.159c0.144-0.199,0.267-0.384,0.365-0.577c0.424-0.845,0.699-1.722,0.907-2.472
			c0.268-0.967,0.397-1.709,0.449-2.414c0.021-0.321,0.047-0.647,0.066-0.974c0.025-0.294,0.047-0.59,0.064-0.878
			c0.072-1.114,0.138-2.427,0.079-3.758C16.558,11.059,16.426,10.374,16.165,9.727z"/>
		<path d="M22.914,17.617l-0.137-0.327c-0.118-0.282-0.243-0.57-0.379-0.845c-0.489-0.935-1.129-1.793-1.69-2.53
			c-0.301-0.39-0.602-0.774-0.908-1.166c-0.501-0.653-1.004-1.3-1.501-1.953c-0.919-1.217-1.611-2.601-2.088-4.125
			c-0.138-0.435-0.196-0.865-0.196-1.313c0.006-0.589,0.137-1.191,0.386-1.825c0.046-0.122,0.111-0.211,0.202-0.269l0.358-0.237
			c0.281-0.173,0.549-0.353,0.816-0.532l0.091-0.057c0.28-0.187,0.568-0.373,0.842-0.57c0.066-0.046,0.234-0.174,0.248-0.384
			c0.014-0.218-0.155-0.366-0.215-0.429c-0.268-0.237-0.58-0.359-0.94-0.359c-0.377,0-0.757,0.013-1.154,0.019
			c-0.105,0-0.196-0.019-0.3-0.069c-0.568-0.27-1.346-0.59-2.215-0.641c-1.056-0.057-1.924,0.295-2.564,1.051
			c-0.568,0.672-0.867,1.492-0.919,2.51c-0.027,0.525-0.034,1.05-0.047,1.576c-0.006,0.646-0.131,1.287-0.373,1.934
			c-0.076,0.217-0.175,0.441-0.28,0.659c-0.278,0.57-0.672,1.153-1.24,1.812c-0.887,1.051-1.774,2.101-2.676,3.139
			c-1.051,1.204-1.911,2.554-2.552,4.016c-0.189,0.422-0.378,0.883-0.45,1.376c-0.039,0.269-0.065,0.588,0.066,0.909
			c0.123,0.269,0.312,0.307,0.417,0.307c0.099,0,0.188-0.039,0.293-0.102c0.105-0.078,0.209-0.174,0.281-0.282
			c0.123-0.179,0.234-0.372,0.353-0.563c0.612-1.07,1.429-2.037,2.421-2.863c0.275-0.224,0.561-0.493,0.915-0.826
			c0.154-0.147,0.287-0.295,0.417-0.455c0,1.69,0.163,3.356,0.503,4.982c0.039,0.205,0.085,0.41,0.117,0.615
			c0.098,0.467,0.183,0.941,0.267,1.416l0.099,0.519c0.104,0.55-0.052,1.018-0.482,1.441c-0.131,0.134-0.295,0.256-0.535,0.41
			c-0.112,0.07-0.223,0.128-0.333,0.186c-0.104,0.051-0.202,0.103-0.301,0.16c-0.136,0.076-0.255,0.18-0.352,0.275l-0.125,0.161
			l0.013,0.147c0.007,0.128,0.06,0.23,0.171,0.314c0.098,0.058,0.209,0.141,0.371,0.16c0.234,0.032,0.47,0.057,0.713,0.032
			c0.273-0.025,0.54-0.07,0.809-0.108c0.266-0.039,0.528-0.071,0.782-0.102c0.137-0.014,0.269-0.02,0.398-0.02l0.255,0.006
			c0.072,0.161,0.184,0.295,0.359,0.392c0.137,0.083,0.294,0.173,0.483,0.211c0.417,0.096,0.855,0.167,1.286,0.23l0.116,0.02
			c0.235,0.031,0.386,0.058,0.489,0.16c0.183,0.179,0.418,0.205,0.641,0.058c0.11-0.077,0.124-0.032,0.194,0.006
			c0.125,0.071,0.25,0.11,0.354,0.129h0.071c0.125,0,0.269-0.058,0.358-0.154l0.146,0.032c0.248,0.051,0.47,0.006,0.606-0.225
			c0.046,0.025,0.104,0.039,0.17,0.039c0.182,0,0.279-0.109,0.358-0.185c0.02-0.026,0.04-0.045,0.053-0.059
			c0.026,0.006,0.059,0.02,0.091,0.033c0.478,0.179,0.666-0.059,0.712-0.289c0.02,0.013,0.053,0.025,0.079,0.039l0.129,0.051h0.079
			c0.17,0,0.313-0.096,0.391-0.275c0.021-0.052,0.041-0.096,0.047-0.148c0.077-0.352-0.071-0.659-0.404-0.799
			c-0.614-0.27-1.233-0.442-1.73-0.565l0.065-0.186c0.085-0.204,0.17-0.409,0.254-0.608l0.046-0.121
			c0.125-0.295,0.255-0.589,0.405-0.877c0.606-1.178,0.835-2.44,0.967-3.407c0.156-1.089,0.247-2.229,0.292-3.592
			c0.209,0.23,0.399,0.416,0.595,0.596c0.575,0.519,1.084,0.992,1.502,1.543c0.163,0.224,0.338,0.448,0.521,0.66
			c0.379,0.455,0.77,0.903,1.176,1.345c0.142,0.16,0.32,0.282,0.47,0.378c0.117,0.076,0.228,0.108,0.338,0.108
			c0.099,0,0.347-0.032,0.471-0.358c0.099-0.224,0.156-0.455,0.215-0.686C23.026,18.072,23.012,17.841,22.914,17.617z
			 M16.517,15.593c-0.018,0.288-0.039,0.583-0.064,0.878c-0.02,0.327-0.046,0.653-0.066,0.974c-0.052,0.704-0.182,1.447-0.449,2.414
			c-0.208,0.75-0.483,1.627-0.907,2.472c-0.099,0.193-0.222,0.378-0.365,0.577c-0.025,0.051-0.079,0.102-0.157,0.159
			c-0.039-0.115-0.06-0.256-0.085-0.454c-0.044-0.32-0.085-0.641-0.124-0.96l-0.052-0.41l-0.112-0.365l-0.548,0.057l-0.052,0.462
			c-0.013,0.154-0.032,0.301-0.053,0.448l-0.052,0.308c-0.039,0.307-0.078,0.602-0.15,0.884c-0.118,0.468-0.26,0.423-0.574,0.397
			c-0.469-0.04-0.927-0.186-1.336-0.442c-0.159-0.103-0.282-0.27-0.4-0.435c-0.281-0.423-0.515-0.916-0.745-1.601
			c-0.168-0.5-0.291-0.936-0.371-1.345c-0.045-0.244-0.078-0.474-0.098-0.706c-0.091-0.96,0.02-1.927,0.34-2.952
			c0.15-0.493,0.308-0.935,0.47-1.351c0.203-0.486,0.28-0.993,0.228-1.543l-0.018-0.103c-0.041-0.525-0.094-1.07-0.183-1.607
			c-0.099-0.576-0.073-1.197,0.084-1.895c0.143-0.641,0.346-1.287,0.613-1.973c0.065-0.173,0.137-0.346,0.209-0.525
			c0.11-0.256,0.162-0.525,0.216-0.781l0.052-0.231c0.026-0.16,0.059-0.32,0.099-0.479c0.031-0.179,0.064-0.359,0.11-0.532
			c0.013-0.07,0.04-0.14,0.084-0.229c0.046,0.031,0.098,0.069,0.139,0.115c0.11,0.102,0.215,0.205,0.313,0.307l0.155,0.161
			c0.606,0.608,1.188,0.672,2.043,0.179c0.079-0.045,0.15-0.103,0.216-0.16c0,0.02,0,0.045,0,0.07
			c-0.032,0.698,0.085,1.409,0.358,2.107l0.334,0.845c0.182,0.468,0.365,0.935,0.548,1.402c0.261,0.647,0.393,1.332,0.431,2.107
			C16.654,13.166,16.589,14.479,16.517,15.593z"/>
	</g>
</g>
</svg>
