<?xml version="1.0" encoding="utf-8"?>
<!-- Generator: Adobe Illustrator 16.0.0, SVG Export Plug-In . SVG Version: 6.00 Build 0)  -->
<!DOCTYPE svg PUBLIC "-//W3C//DTD SVG 1.0//EN" "http://www.w3.org/TR/2001/REC-SVG-20010904/DTD/svg10.dtd">
<svg version="1.0" id="Layer_1" xmlns="http://www.w3.org/2000/svg" xmlns:xlink="http://www.w3.org/1999/xlink" x="0px" y="0px"
	 width="23.521px" height="33.736px" viewBox="0 0 23.521 33.736" enable-background="new 0 0 23.521 33.736" xml:space="preserve">
<ellipse fill="#FFFFFF" cx="11.76" cy="11.625" rx="7.5" ry="7.669"/>
<path fill="#F36F2B" d="M23.26,11.76C23.26,5.266,18.112,0,11.761,0C5.41,0,0.26,5.266,0.26,11.76c0,2.318,0.658,4.479,1.792,6.302
	l9.71,15.675l9.709-15.675C22.602,16.239,23.26,14.079,23.26,11.76z M11.761,18.41c-3.664,0-6.637-3.038-6.637-6.785
	S8.097,4.84,11.761,4.84c3.662,0,6.635,3.038,6.635,6.785S15.425,18.41,11.761,18.41z"/>
</svg>
