<?xml version="1.0" encoding="utf-8"?>
<!-- Generator: Adobe Illustrator 16.0.0, SVG Export Plug-In . SVG Version: 6.00 Build 0)  -->
<!DOCTYPE svg PUBLIC "-//W3C//DTD SVG 1.0//EN" "http://www.w3.org/TR/2001/REC-SVG-20010904/DTD/svg10.dtd">
<svg version="1.0" xmlns="http://www.w3.org/2000/svg" xmlns:xlink="http://www.w3.org/1999/xlink" x="0px" y="0px" width="26px"
	 height="26px" viewBox="0 0 26 26" enable-background="new 0 0 26 26" xml:space="preserve">
<g id="Layer_14_1_" opacity="0.9">
	<rect opacity="0" fill="#9E4222" width="26" height="26"/>
</g>
<g id="Layer_11">
	<g>
		<polygon points="21.836,9.565 4.162,9.565 3.5,25 22.5,25 		"/>
		<path d="M11.784,3.063c0.46-0.334,0.888-0.52,1.216-0.52c0.229,0,0.507,0.088,0.81,0.258c1.328,0.731,3.146,2.972,3.394,5.915
			h1.481C18.352,4.227,15.265,1,13,1c-0.389,0-0.799,0.099-1.216,0.278c-0.688,0.294-1.389,0.816-2.029,1.524
			C8.508,4.181,7.497,6.257,7.313,8.717h1.48C9.018,6.062,10.52,3.986,11.784,3.063z"/>
	</g>
</g>
</svg>
