<?xml version="1.0" encoding="utf-8"?>
<!-- Generator: Adobe Illustrator 16.0.0, SVG Export Plug-In . SVG Version: 6.00 Build 0)  -->
<!DOCTYPE svg PUBLIC "-//W3C//DTD SVG 1.0//EN" "http://www.w3.org/TR/2001/REC-SVG-20010904/DTD/svg10.dtd">
<svg version="1.0" xmlns="http://www.w3.org/2000/svg" xmlns:xlink="http://www.w3.org/1999/xlink" x="0px" y="0px" width="26px"
	 height="26px" viewBox="0 0 26 26" enable-background="new 0 0 26 26" xml:space="preserve">
<g id="Layer_1" display="none">
	<polygon display="inline" points="16.048,9.952 16.048,2.5 9.954,2.5 9.954,9.952 2.5,9.952 2.5,16.048 9.954,16.048 9.954,23.5 
		16.048,23.5 16.048,16.048 23.5,16.048 23.5,9.952 	"/>
</g>
<g id="Layer_10" display="none">
	<g display="inline">
		<path fill="none" d="M23.806,19.278l-10.791-6.442L2.283,19.247c-0.666,0.487-0.306,1.387,0.414,1.393h20.685
			C24.056,20.666,24.466,19.706,23.806,19.278z"/>
		<path d="M24.858,17.775l-11.067-6.638v-0.698c0-0.698,1.212-0.864,1.813-1.925c0.362-0.625,0.448-1.163,0.448-1.756
			c0-0.785-0.71-3.257-3.184-3.257c-2.29,0-3.294,1.975-3.294,3.095c0,1.197,1.644,1.575,1.764,0.09
			c0.078-0.945,0.79-1.362,1.518-1.362c0.437,0,1.41,0.357,1.41,1.466c0,0,0.076,0.956-0.806,1.391c0,0-1.36,0.554-1.36,1.831v1.126
			L1.146,17.75c-1.262,0.794-1.262,2.116-1.022,2.964C0.348,21.541,1.092,22.5,2.728,22.5c1.894,0,20.681,0,20.681,0h0.006
			c1.456,0,2.27-0.985,2.496-1.809C26.148,19.838,25.948,18.433,24.858,17.775z M23.382,20.64H2.697
			c-0.72-0.006-1.08-0.906-0.414-1.393l10.731-6.412l10.791,6.442C24.466,19.706,24.056,20.666,23.382,20.64z"/>
	</g>
</g>
<g id="Layer_11" display="none">
	<g display="inline">
		<polygon points="21.836,9.565 4.162,9.565 3.5,25 22.5,25 		"/>
		<path d="M11.784,3.063c0.46-0.334,0.888-0.52,1.216-0.52c0.229,0,0.507,0.088,0.81,0.258c1.328,0.731,3.146,2.972,3.394,5.915
			h1.481C18.352,4.227,15.265,1,13,1c-0.389,0-0.799,0.099-1.216,0.278c-0.688,0.294-1.389,0.816-2.029,1.524
			C8.508,4.181,7.497,6.257,7.313,8.717h1.48C9.018,6.062,10.52,3.986,11.784,3.063z"/>
	</g>
</g>
<g id="Layer_2" display="none">
	<g display="inline">
		<path fill="none" d="M3.612,15.137l7.209,7.208l11.34-11.344l-7.21-7.209L3.612,15.137z M10.851,20.035l-4.929-4.928l9.001-9.003
			l4.929,4.928L10.851,20.035z"/>
		<path d="M25.299,8.027l-1.855-1.855c-0.399,0.233-0.858,0.376-1.354,0.376c-1.49,0-2.699-1.208-2.699-2.699
			c0-0.497,0.142-0.956,0.376-1.355l-1.792-1.793c-0.748-0.747-1.78-0.925-2.309-0.397L0.303,15.666
			c-0.526,0.526-0.349,1.56,0.398,2.308l1.782,1.782c0.418-0.278,0.914-0.443,1.45-0.443c1.481,0,2.683,1.229,2.683,2.746
			c0,0.524-0.152,1.01-0.403,1.428l1.813,1.812c0.747,0.747,1.781,0.924,2.308,0.398l15.363-15.362
			C26.224,9.808,26.046,8.775,25.299,8.027z M10.821,22.345l-7.209-7.208L14.951,3.792l7.21,7.209L10.821,22.345z"/>
		
			<rect x="9.402" y="6.703" transform="matrix(-0.7071 -0.7071 0.7071 -0.7071 12.759 31.4218)" fill="#010101" width="6.97" height="12.731"/>
	</g>
</g>
<g id="Layer_3" display="none">
	<g display="inline">
		<path d="M20,12.971L19.986,1.302c0-0.72-0.579-1.302-1.301-1.302c-0.716,0-1.297,0.582-1.297,1.302l-1.04,11.669
			c-0.004,0.051,0.032,0.086,0.075,0.086h3.494C19.964,13.057,20,13.021,20,12.971z"/>
		<path d="M17.49,13.418c-0.05,0-0.086,0.034-0.086,0.084v12.412c0,0.05,0.036,0.086,0.086,0.086h2.428
			C19.964,26,20,25.964,20,25.914V13.502c0-0.05-0.036-0.084-0.082-0.084H17.49z"/>
		<path d="M11.993,0.353h-1.234v7.371c0,0.079-0.062,0.142-0.143,0.142H9.92c-0.075,0-0.14-0.063-0.14-0.142V0.353H8.593v7.371
			c0,0.079-0.063,0.142-0.145,0.142H7.752c-0.074,0-0.139-0.063-0.139-0.142V0.353H6.642c-0.133,0-0.251,0.115-0.255,0.25L6,9.75
			C5.997,9.885,6.097,9.995,6.234,9.995h1.786v15.919c0,0.05,0.036,0.086,0.082,0.086h2.428c0.051,0,0.086-0.036,0.086-0.086V9.995
			h1.788c0.133,0,0.236-0.109,0.229-0.245l-0.381-9.146C12.244,0.467,12.126,0.353,11.993,0.353z"/>
	</g>
</g>
<g id="Layer_4" display="none">
	<g display="inline">
		<path fill="none" d="M1.793,21.166h22.414V4.833H1.793V21.166z M14.252,13.144c0,0,2.797,2.86,3.441,3.521V6.581h1.473v10.084
			c0.641-0.661,3.436-3.516,3.436-3.516l1.043,1.061l-5.209,5.331l-5.223-5.331L14.252,13.144z M7.745,6.361l5.217,5.341
			l-1.033,1.055c0,0-2.796-2.857-3.44-3.52v10.082H7.02V9.237c-0.646,0.663-3.455,3.52-3.455,3.52l-1.033-1.055L7.745,6.361z"/>
		<path d="M0,3v20h26V3H0z M24.207,21.166H1.793V4.833h22.414V21.166z"/>
		<path d="M23.645,14.21l-1.043-1.061c0,0-2.795,2.855-3.436,3.516V6.581h-1.473v10.084c-0.645-0.661-3.441-3.521-3.441-3.521
			l-1.039,1.066l5.223,5.331L23.645,14.21z"/>
		<path d="M7.02,9.237v10.082h1.469V9.237c0.645,0.663,3.44,3.52,3.44,3.52l1.033-1.055L7.745,6.361l-5.214,5.341l1.033,1.055
			C3.564,12.757,6.374,9.9,7.02,9.237z"/>
	</g>
</g>
<g id="Layer_5" display="none">
	<g display="inline">
		<path d="M5.077,5.344H5.014H5.006H4.94c-1.352,0-2.54,0.212-2.742,0.556C1.974,6.27,0,13.233,0,13.379
			c-0.008,0.149,0.835,0.4,0.917,0.296c0.082-0.104,1.784-4.856,1.899-4.965c0.104-0.092,0.218-0.106,0.312,0.109
			c0.084,0.223,0.24,0.988,0.227,1.171c-0.027,0.357-1.717,6.609-1.738,6.705c-0.001,0.019,0.006,0.062,0.071,0.062
			c0.352,0.009,1.095,0,1.233,0c0.074,0,0.088,0.057,0.088,0.057c0.098,0.274,0.801,7.639,0.801,7.639s0,0.047,0.036,0.047
			c0.031,0,0.668,0,0.851,0c0.033,0,0.052-0.051,0.052-0.051s0-7.388,0-7.627c0-0.086,0.258-0.108,0.258-0.108h0.008
			c0,0,0.257,0.021,0.257,0.108c0,0.239,0,7.627,0,7.627S5.286,24.5,5.32,24.5c0.187,0,0.83,0,0.853,0
			c0.035,0,0.035-0.047,0.035-0.047s0.704-7.365,0.804-7.639c0,0,0.01-0.057,0.091-0.057c0.131,0,0.868,0.009,1.219,0
			c0.062,0,0.075-0.043,0.062-0.062C8.372,16.6,6.693,10.348,6.665,9.991c-0.012-0.184,0.134-0.948,0.23-1.171
			C6.974,8.604,7.103,8.618,7.198,8.71c0.117,0.109,1.824,4.862,1.909,4.965c0.078,0.104,0.921-0.147,0.921-0.296
			C10.019,13.233,8.041,6.27,7.82,5.9C7.609,5.557,6.429,5.344,5.077,5.344z"/>
		<path d="M5.236,5.102C6.564,4.911,6.87,2.495,5.858,1.75C5.541,1.514,5.165,1.5,4.728,1.5C4.38,1.591,4.114,1.69,3.877,1.962
			C3.563,2.319,3.516,2.866,3.552,3.377C3.633,4.363,4.044,5.267,5.236,5.102z"/>
		<path d="M21.296,5.102c1.328-0.191,1.634-2.607,0.628-3.351c-0.321-0.237-0.695-0.25-1.145-0.25
			c-0.336,0.091-0.601,0.19-0.843,0.462c-0.312,0.357-0.359,0.911-0.326,1.423C19.696,4.363,20.104,5.278,21.296,5.102z"/>
		<path d="M23.299,9.138c0.113,0.403,0.215,0.805,0.326,1.21c0.282,1.127,0.561,2.256,0.845,3.383
			c0.069,0.273,0.109,0.754,0.304,0.96c0.175,0.181,1.012-0.03,1.157-0.163c0.125-0.105,0.046-0.348,0.027-0.476
			c-0.365-2.178-0.776-4.405-1.327-6.52c-0.133-0.502-0.217-1.339-0.606-1.717c-0.551-0.538-5.404-0.549-5.816,0.097
			c-0.336,0.534-0.47,1.317-0.626,1.938c-0.388,1.621-0.739,3.289-1.04,4.955c-0.065,0.357-0.344,1.294-0.208,1.633
			c0.025,0.03,0.046,0.054,0.069,0.084c0.147,0.089,0.974,0.314,1.133,0.16c0.242-0.226,0.28-0.861,0.373-1.18
			c0.37-1.454,0.74-2.911,1.105-4.365c0.008,0,0.008,0,0.023,0c0.104,0.739,0.211,1.483,0.32,2.224
			c-0.738,4.368-2.216,13.129-2.216,13.129s1.19,0,1.78,0c0.737-3.059,1.471-6.127,2.196-9.199c0.014,0,0.018,0,0.021,0
			c0.743,3.028,2.275,9.199,2.275,9.199s1.441,0,1.745,0c-0.19-1.162-0.377-2.334-0.562-3.497c-0.556-3.221-1.098-6.442-1.639-9.667
			c0.104-0.725,0.217-1.464,0.322-2.189H23.299z"/>
		<path d="M13.609,1.5h-1.258c-0.04,0-0.068,0.035-0.068,0.078V24.5h1.403V1.578C13.687,1.535,13.645,1.5,13.609,1.5z"/>
	</g>
</g>
<g id="Layer_6" display="none">
	<g display="inline">
		<path d="M12.967,2.5C8.914,2.5,6,5.679,6,8.76c0,0.406,0,1.731,0,1.731h3.73c0,0,0-0.824,0-1.293C9.73,7.281,10.839,6,12.967,6
			c2.079,0,3.139,1.055,3.139,2.474c0,1.198-0.828,1.73-2.101,2.541c-2.431,1.549-2.791,2.376-2.791,4.467c0,0.514,0,3.086,0,3.086
			h3.708c0,0,0-2.072,0-2.449c0-1.276,0.163-1.424,1.42-2.312C19.018,11.913,20,10.935,20,8.677C20,5.242,17.134,2.5,12.967,2.5z"/>
		<rect x="11.214" y="19.932" width="3.733" height="3.568"/>
	</g>
</g>
<g id="Layer_7" display="none">
</g>
<g id="Layer_8" display="none">
	<g display="inline">
		<path fill="#FFFFFF" d="M16.165,9.727c-0.183-0.467-0.366-0.935-0.548-1.402l-0.334-0.845c-0.273-0.698-0.391-1.409-0.358-2.107
			c0-0.025,0-0.051,0-0.07c-0.065,0.057-0.137,0.115-0.216,0.16c-0.855,0.493-1.437,0.429-2.043-0.179l-0.155-0.161
			c-0.099-0.103-0.203-0.205-0.313-0.307c-0.041-0.045-0.093-0.083-0.139-0.115C12.015,4.79,11.987,4.86,11.975,4.93
			c-0.046,0.173-0.079,0.353-0.11,0.532c-0.04,0.16-0.072,0.32-0.099,0.479l-0.052,0.231c-0.054,0.256-0.105,0.525-0.216,0.781
			c-0.072,0.179-0.144,0.353-0.209,0.525c-0.268,0.686-0.471,1.332-0.613,1.973c-0.157,0.698-0.183,1.319-0.084,1.895
			c0.089,0.538,0.142,1.083,0.183,1.607l0.018,0.103c0.053,0.551-0.024,1.057-0.228,1.543c-0.162,0.416-0.319,0.858-0.47,1.351
			c-0.32,1.025-0.431,1.991-0.34,2.952c0.02,0.231,0.053,0.461,0.098,0.706c0.08,0.409,0.203,0.845,0.371,1.345
			c0.23,0.685,0.464,1.178,0.745,1.601c0.118,0.166,0.241,0.332,0.4,0.435c0.409,0.256,0.867,0.403,1.336,0.442
			c0.314,0.026,0.456,0.07,0.574-0.397c0.072-0.282,0.111-0.577,0.15-0.884l0.052-0.308c0.021-0.147,0.04-0.294,0.053-0.448
			l0.052-0.462l0.548-0.057l0.112,0.365l0.052,0.41c0.039,0.32,0.08,0.641,0.124,0.96c0.025,0.198,0.046,0.339,0.085,0.454
			c0.078-0.057,0.132-0.108,0.157-0.159c0.144-0.199,0.267-0.384,0.365-0.577c0.424-0.845,0.699-1.722,0.907-2.472
			c0.268-0.967,0.397-1.709,0.449-2.414c0.021-0.321,0.047-0.647,0.066-0.974c0.025-0.294,0.047-0.59,0.064-0.878
			c0.072-1.114,0.138-2.427,0.079-3.758C16.558,11.059,16.426,10.374,16.165,9.727z"/>
		<path d="M22.914,17.617l-0.137-0.327c-0.118-0.282-0.243-0.57-0.379-0.845c-0.489-0.935-1.129-1.793-1.69-2.53
			c-0.301-0.39-0.602-0.774-0.908-1.166c-0.501-0.653-1.004-1.3-1.501-1.953c-0.919-1.217-1.611-2.601-2.088-4.125
			c-0.138-0.435-0.196-0.865-0.196-1.313c0.006-0.589,0.137-1.191,0.386-1.825c0.046-0.122,0.111-0.211,0.202-0.269l0.358-0.237
			c0.281-0.173,0.549-0.353,0.816-0.532l0.091-0.057c0.28-0.187,0.568-0.373,0.842-0.57c0.066-0.046,0.234-0.174,0.248-0.384
			c0.014-0.218-0.155-0.366-0.215-0.429c-0.268-0.237-0.58-0.359-0.94-0.359c-0.377,0-0.757,0.013-1.154,0.019
			c-0.105,0-0.196-0.019-0.3-0.069c-0.568-0.27-1.346-0.59-2.215-0.641c-1.056-0.057-1.924,0.295-2.564,1.051
			c-0.568,0.672-0.867,1.492-0.919,2.51c-0.027,0.525-0.034,1.05-0.047,1.576c-0.006,0.646-0.131,1.287-0.373,1.934
			c-0.076,0.217-0.175,0.441-0.28,0.659c-0.278,0.57-0.672,1.153-1.24,1.812c-0.887,1.051-1.774,2.101-2.676,3.139
			c-1.051,1.204-1.911,2.554-2.552,4.016c-0.189,0.422-0.378,0.883-0.45,1.376c-0.039,0.269-0.065,0.588,0.066,0.909
			c0.123,0.269,0.312,0.307,0.417,0.307c0.099,0,0.188-0.039,0.293-0.102c0.105-0.078,0.209-0.174,0.281-0.282
			c0.123-0.179,0.234-0.372,0.353-0.563c0.612-1.07,1.429-2.037,2.421-2.863c0.275-0.224,0.561-0.493,0.915-0.826
			c0.154-0.147,0.287-0.295,0.417-0.455c0,1.69,0.163,3.356,0.503,4.982c0.039,0.205,0.085,0.41,0.117,0.615
			c0.098,0.467,0.183,0.941,0.267,1.416l0.099,0.519c0.104,0.55-0.052,1.018-0.482,1.441c-0.131,0.134-0.295,0.256-0.535,0.41
			c-0.112,0.07-0.223,0.128-0.333,0.186c-0.104,0.051-0.202,0.103-0.301,0.16c-0.136,0.076-0.255,0.18-0.352,0.275l-0.125,0.161
			l0.013,0.147c0.007,0.128,0.06,0.23,0.171,0.314c0.098,0.058,0.209,0.141,0.371,0.16c0.234,0.032,0.47,0.057,0.713,0.032
			c0.273-0.025,0.54-0.07,0.809-0.108c0.266-0.039,0.528-0.071,0.782-0.102c0.137-0.014,0.269-0.02,0.398-0.02l0.255,0.006
			c0.072,0.161,0.184,0.295,0.359,0.392c0.137,0.083,0.294,0.173,0.483,0.211c0.417,0.096,0.855,0.167,1.286,0.23l0.116,0.02
			c0.235,0.031,0.386,0.058,0.489,0.16c0.183,0.179,0.418,0.205,0.641,0.058c0.11-0.077,0.124-0.032,0.194,0.006
			c0.125,0.071,0.25,0.11,0.354,0.129h0.071c0.125,0,0.269-0.058,0.358-0.154l0.146,0.032c0.248,0.051,0.47,0.006,0.606-0.225
			c0.046,0.025,0.104,0.039,0.17,0.039c0.182,0,0.279-0.109,0.358-0.185c0.02-0.026,0.04-0.045,0.053-0.059
			c0.026,0.006,0.059,0.02,0.091,0.033c0.478,0.179,0.666-0.059,0.712-0.289c0.02,0.013,0.053,0.025,0.079,0.039l0.129,0.051h0.079
			c0.17,0,0.313-0.096,0.391-0.275c0.021-0.052,0.041-0.096,0.047-0.148c0.077-0.352-0.071-0.659-0.404-0.799
			c-0.614-0.27-1.233-0.442-1.73-0.565l0.065-0.186c0.085-0.204,0.17-0.409,0.254-0.608l0.046-0.121
			c0.125-0.295,0.255-0.589,0.405-0.877c0.606-1.178,0.835-2.44,0.967-3.407c0.156-1.089,0.247-2.229,0.292-3.592
			c0.209,0.23,0.399,0.416,0.595,0.596c0.575,0.519,1.084,0.992,1.502,1.543c0.163,0.224,0.338,0.448,0.521,0.66
			c0.379,0.455,0.77,0.903,1.176,1.345c0.142,0.16,0.32,0.282,0.47,0.378c0.117,0.076,0.228,0.108,0.338,0.108
			c0.099,0,0.347-0.032,0.471-0.358c0.099-0.224,0.156-0.455,0.215-0.686C23.026,18.072,23.012,17.841,22.914,17.617z
			 M16.517,15.593c-0.018,0.288-0.039,0.583-0.064,0.878c-0.02,0.327-0.046,0.653-0.066,0.974c-0.052,0.704-0.182,1.447-0.449,2.414
			c-0.208,0.75-0.483,1.627-0.907,2.472c-0.099,0.193-0.222,0.378-0.365,0.577c-0.025,0.051-0.079,0.102-0.157,0.159
			c-0.039-0.115-0.06-0.256-0.085-0.454c-0.044-0.32-0.085-0.641-0.124-0.96l-0.052-0.41l-0.112-0.365l-0.548,0.057l-0.052,0.462
			c-0.013,0.154-0.032,0.301-0.053,0.448l-0.052,0.308c-0.039,0.307-0.078,0.602-0.15,0.884c-0.118,0.468-0.26,0.423-0.574,0.397
			c-0.469-0.04-0.927-0.186-1.336-0.442c-0.159-0.103-0.282-0.27-0.4-0.435c-0.281-0.423-0.515-0.916-0.745-1.601
			c-0.168-0.5-0.291-0.936-0.371-1.345c-0.045-0.244-0.078-0.474-0.098-0.706c-0.091-0.96,0.02-1.927,0.34-2.952
			c0.15-0.493,0.308-0.935,0.47-1.351c0.203-0.486,0.28-0.993,0.228-1.543l-0.018-0.103c-0.041-0.525-0.094-1.07-0.183-1.607
			c-0.099-0.576-0.073-1.197,0.084-1.895c0.143-0.641,0.346-1.287,0.613-1.973c0.065-0.173,0.137-0.346,0.209-0.525
			c0.11-0.256,0.162-0.525,0.216-0.781l0.052-0.231c0.026-0.16,0.059-0.32,0.099-0.479c0.031-0.179,0.064-0.359,0.11-0.532
			c0.013-0.07,0.04-0.14,0.084-0.229c0.046,0.031,0.098,0.069,0.139,0.115c0.11,0.102,0.215,0.205,0.313,0.307l0.155,0.161
			c0.606,0.608,1.188,0.672,2.043,0.179c0.079-0.045,0.15-0.103,0.216-0.16c0,0.02,0,0.045,0,0.07
			c-0.032,0.698,0.085,1.409,0.358,2.107l0.334,0.845c0.182,0.468,0.365,0.935,0.548,1.402c0.261,0.647,0.393,1.332,0.431,2.107
			C16.654,13.166,16.589,14.479,16.517,15.593z"/>
	</g>
</g>
<g id="Layer_13" display="none">
	<g display="inline">
		<path fill="none" d="M12.999,1.451C6.631,1.451,1.45,6.63,1.45,12.998c0,6.37,5.181,11.551,11.549,11.551
			c6.369,0,11.551-5.182,11.551-11.551C24.55,6.63,19.368,1.451,12.999,1.451z M14.27,20.473l-1.521-4.851L8.08,21.569l3.03-7.478
			l-5.66,0.134l4.989-1.56L4.426,7.955l7.496,3.048l-0.128-5.642l1.555,4.999l4.664-5.935l-3.001,7.438l5.557-0.116l-4.863,1.522
			l5.871,4.62l-7.425-2.99L14.27,20.473z"/>
		<path fill="#010101" d="M12.999,0C5.831,0,0,5.831,0,12.998C0,20.167,5.831,26,12.999,26C20.168,26,26,20.167,26,12.998
			C26,5.831,20.168,0,12.999,0z M12.999,24.549c-6.368,0-11.549-5.182-11.549-11.551c0-6.367,5.181-11.546,11.549-11.546
			c6.369,0,11.551,5.179,11.551,11.546C24.55,19.367,19.368,24.549,12.999,24.549z"/>
		<polygon fill="#FFFFFF" points="11.922,11.003 4.426,7.955 10.439,12.666 11.949,12.194 		"/>
		<polygon fill="#FFFFFF" points="15.705,13.269 14.128,13.763 14.151,14.898 21.576,17.888 		"/>
		<polygon fill="#FFFFFF" points="15.012,11.862 18.013,4.425 13.349,10.36 13.824,11.887 		"/>
		<polygon fill="#FFFFFF" points="11.11,14.092 8.08,21.569 12.748,15.622 12.26,14.065 		"/>
		<polygon fill="#010101" points="15.705,13.269 20.568,11.746 15.012,11.862 13.824,11.887 13.349,10.36 11.794,5.361 
			11.922,11.003 11.949,12.194 10.439,12.666 5.45,14.226 11.11,14.092 12.26,14.065 12.748,15.622 14.27,20.473 14.151,14.898 
			14.128,13.763 		"/>
	</g>
</g>
<g id="Layer_14" display="none">
	<g display="inline">
		<path fill="none" d="M-8.684,3.177c-0.369,0.094-1.023,0.237-0.418,0.705c0.609,0.472,0.418,1.129,0.885,0.285
			c0.469-0.848,0.373-1.083,0.141-1.319C-8.076,2.848-8.311,3.083-8.684,3.177z"/>
		<path fill="none" d="M-11.152,3.223c0,0-1.488,1.41-0.65,1.224C-10.963,4.258-9.988,3.133-11.152,3.223z"/>
		<path fill="none" d="M-5.236,1.439c-0.561-0.188-1.162,1.035-1.162,1.035c-0.469,0.797,0,1.174,0.648,1.454
			c0.656,0.281,0.936-0.185,0.656-0.375c-0.281-0.186-0.469-0.331-0.188-0.986C-5.002,1.91-4.676,1.629-5.236,1.439z"/>
		<path d="M35.059,0.438L35.008,0c0,0-0.365,0.289-0.488,0.591c-0.055,0.018-0.105,0.032-0.166,0.05
			c-0.584,0.333-1.148,0.647-1.705,0.94l-0.119-0.68c0,0-0.438,0.475-0.449,0.97c-0.543,0.273-1.082,0.52-1.617,0.731l-0.107-0.6
			c0,0-0.34,0.373-0.428,0.801c-0.551,0.192-1.107,0.345-1.668,0.451l0.059-0.928c0,0-0.555,0.431-0.676,1.024
			C27.08,3.42,26.508,3.439,25.922,3.4l0.229-0.991c0,0-0.568,0.345-0.828,0.931c-0.412-0.057-0.834-0.138-1.262-0.256
			c-0.207-0.056-0.422-0.109-0.641-0.16c0.037-0.037,0.07-0.07,0.111-0.11c1.602-1.617-2.324-2.735-5.537-2.789
			c-1.643-0.029-1.992,1.158-1.943,2.323c-0.574,0.025-1.129,0.066-1.656,0.124c-0.199-0.543-0.789-1.987-1.32-1.809
			c-0.65,0.22-0.801,0.334-0.072,1.811c0.041,0.059,0.07,0.12,0.107,0.18c-0.529,0.094-1.02,0.205-1.438,0.336
			c-0.102,0.032-0.213,0.063-0.324,0.095c-0.121-0.425-0.734-2.439-1.324-2.2C9.361,1.151,9.211,1.291,9.906,2.974
			c0.082,0.139,0.146,0.281,0.213,0.423c-0.525,0.115-1.084,0.218-1.67,0.301C8.408,3.602,8.383,3.545,8.383,3.545
			S7.641,1.323,6.992,1.542C6.34,1.758,6.189,1.873,6.916,3.354c0.107,0.157,0.201,0.318,0.287,0.479
			C5.912,3.939,4.598,3.921,3.436,3.7l0.111-0.329c0,0-0.244,0.082-0.484,0.251C2.377,3.46,1.762,3.216,1.248,2.878L1.67,2.223
			c0,0-0.537,0.037-0.893,0.316c-0.785-0.63-1.535-1.026-2.217-1.268l0.15-0.563c0,0-0.354,0.147-0.613,0.417
			c-1.004-0.269-1.814-0.216-2.285-0.134c-0.102-0.235-0.023-0.709-0.674-0.445C-5.562,0.83-6.191,0.69-7.238,0.83
			C-8.283,0.97-9.193,1.745-9.193,1.745c-4.404,1.338-3.775,3.949-3.775,3.949c5.312,1.338,5.941-0.142,6.289-0.286
			c0.117-0.047,0.516-0.134,1.012-0.221c-0.061,0.189-0.137,0.408-0.217,0.669c-0.578,1.789-3.934,4.221-4.896,5.011
			c0,0-0.449,0.207,0.613,0.722c1.062,0.513,3.016-0.525,3.902-1.385c0.889-0.862,2.227-1.082,2.227-1.082s0.818-0.639,0.926-1.833
			c0.111-1.192,1.662-2,1.012-2.74C-2.18,4.465-2.242,4.399-2.293,4.349C-2.285,4.17-2.303,3.99-2.35,3.856
			C-2.477,3.471-2.898,2.374-3.344,2.25c-0.08-0.254-0.16-0.476-0.193-0.559C-3.02,1.725-2.561,1.788-2.16,1.873
			c0.037,0.194,0.156,0.409,0.391,0.645l0.137-0.512c1.346,0.386,1.887,0.958,1.887,0.958c0.074,0.063,0.15,0.121,0.223,0.18
			c0,0.179,0.053,0.391,0.184,0.646l0.225-0.349C1.422,3.803,2,4.085,2.6,4.301C2.574,4.536,2.662,4.815,2.955,5.144l0.219-0.655
			c0.754,0.216,1.525,0.338,2.287,0.396C5.27,4.885,5.125,4.897,5.137,4.932c0,0-0.887,2.153-1.338,2.252
			C3.404,7.272,2.75,6.528,2.725,7.238C2.549,7.392,2.422,7.66,2.422,7.66S1.395,8.279,0.689,8.827s-1.455-0.425-1.562,0.79
			s0.639,0.932,0.639,0.932S1.891,9.03,2.941,8.521c0.188,0.59,0.449,0.781,0.928,0.951c0.102,0.036,0.215,0.069,0.334,0.099
			c-0.143,0.13-0.914,0.845-1.443,1.461c-0.586,0.675-1.51-0.13-1.379,1.082c0.133,1.211,0.812,0.79,0.812,0.79
			s2.314-2.482,3.047-2.839c0.496-0.24,0.461-0.274,0.229-0.477c0.055-0.051,0.066-0.123,0.02-0.221
			C5.254,8.884,4.195,8.709,4.996,7.149c0.789-1.545,1.461-2.213,1.471-2.224c0.393,0.003,0.779-0.01,1.148-0.033
			c0.619,2.349-0.561,4.616-0.561,4.616c-0.453,1.068,0.746,0.591,0.746,0.591c1.533-1.804,1.34-3.983,1.004-5.318
			c0.684-0.087,1.271-0.197,1.705-0.293c0.703,2.779-0.605,5.578-0.605,5.578c-0.477,1.239,0.74,0.662,0.74,0.662
			c1.715-2.303,1.391-5.067,1.039-6.532c0.676-0.173,1.32-0.318,1.938-0.439c0.779,2.442-0.484,4.875-0.484,4.875
			c-0.449,1.068,0.752,0.589,0.752,0.589c1.674-1.977,1.281-4.4,0.902-5.672c0.484-0.077,0.947-0.143,1.385-0.193
			c0.135,0.677,0.326,1.19,0.326,1.19s-0.816,4.371,1.344,3.143l0.631-1.915c0.555-0.393-0.756-1.228-0.869-1.563
			c-0.109-0.333,0-1.115,0.996-0.167c0.994,0.951,0.994,0.167,0.994,0.167c0.533-0.694,0.998-0.917,1.381-0.925l0.238,0.083
			c0.131,0.039,0.258,0.072,0.385,0.108c0.312,0.21,0.486,0.51,0.486,0.51s-0.084,0.233,0.484-0.259
			c0.938,0.213,1.816,0.332,2.639,0.38c0.035,0.256,0.143,0.533,0.359,0.832l0.186-0.81c0.697,0.015,1.35-0.025,1.961-0.102
			c0.084,0.191,0.229,0.388,0.461,0.586l0.041-0.66c0.689-0.115,1.316-0.275,1.883-0.465c0.119,0.135,0.305,0.257,0.576,0.353
			l-0.092-0.526c0.695-0.266,1.285-0.564,1.77-0.847c0.119,0.104,0.277,0.199,0.496,0.277L32.76,2.223
			c0.566-0.36,0.943-0.661,1.129-0.783c0,0,0.352-0.155,0.838-0.328c0.105,0.053,0.24,0.096,0.428,0.126l-0.031-0.258
			c0.617-0.196,1.34-0.37,1.857-0.316C36.98,0.663,37.336-0.154,35.059,0.438z M-11.803,4.446c-0.838,0.186,0.65-1.224,0.65-1.224
			C-9.988,3.133-10.963,4.258-11.803,4.446z M-8.217,4.167c-0.467,0.844-0.275,0.188-0.885-0.285
			c-0.605-0.468,0.049-0.611,0.418-0.705c0.373-0.094,0.607-0.329,0.607-0.329C-7.844,3.083-7.748,3.319-8.217,4.167z M-5.094,3.554
			c0.279,0.189,0,0.656-0.656,0.375c-0.648-0.28-1.117-0.657-0.648-1.454c0,0,0.602-1.222,1.162-1.035
			c0.561,0.189,0.234,0.471-0.045,1.128C-5.562,3.223-5.375,3.368-5.094,3.554z"/>
		<path d="M21.004,11.136c-0.369-0.519,0.918-5.688,0.918-5.97c0-0.283,0.188-0.703-0.697-0.94
			c-0.885-0.233-0.842,1.081-0.842,1.081c0,4.889-0.631,5.169-1.004,6.487c-0.385,1.355,0.541,0.984,0.541,0.984
			C20.664,12.828,21.379,11.651,21.004,11.136z"/>
		<path d="M18.404,17.097c-0.26,0.205-0.619,0.07-0.619,0.07c-0.266-0.551-1.08-0.363-0.785,0.289
			c0.229,0.497-0.09,1.269-0.09,1.269c-0.053,0.037-0.271,1.575-1.545,2.896c-1.273,1.323-2.938,0.284-2.938,0.284
			c-0.619-0.451-1.305,1.36-1.383,1.547c0.023,0.011,0.814,0.378,1.314-0.219c0.689-0.824,2.725,0.09,3.416,0.721
			c0,0,1.033,0.558,0.793-0.242c-0.295-0.989,0.469-1.273,0.469-1.273c0.533-0.13,0.457-0.451,0.312-0.843
			c-0.143-0.398,0.049,0.115,0.207-0.86c0.156-0.976,1.061-1.929,1.086-2.854C18.66,17.207,18.66,16.887,18.404,17.097z"/>
		<path d="M17.771,8.664c-0.623,0.703-1.545,0.151-1.545,0.151c-0.973,0.887-0.254,0.308,0.453,1.823
			c0.705,1.511,0.018,2.758,0.4,4.235c0.379,1.481,1.582,0.51,1.582,0.51s-0.238-1.791-0.318-3.013
			c-0.082-1.226-0.199-2.123,0.328-2.945C19.199,8.603,18.4,7.962,17.771,8.664z"/>
		<path d="M27.553,21.475c-0.129-0.976,0.455-2.157,0.211-3.052c-0.172-0.645-0.266-0.952-0.451-0.675
			c-0.186,0.271-0.57,0.25-0.57,0.25c-0.414-0.45-1.137-0.03-0.664,0.505c0.359,0.409,0.277,1.245,0.277,1.245
			c-0.041,0.049,0.195,1.582-0.639,3.222c-0.836,1.639-2.729,1.132-2.729,1.132c-0.723-0.246-0.855,1.686-0.879,1.889
			c0.025,0.004,0.891,0.122,1.197-0.592c0.422-0.994,2.631-0.717,3.475-0.319c0,0,1.152,0.231,0.689-0.464
			c-0.566-0.858,0.082-1.351,0.082-1.351c0.471-0.282,0.311-0.571,0.057-0.908C27.355,22.026,27.691,22.458,27.553,21.475z"/>
		<path d="M25.496,17.043c1.27,0.829,1.512-0.701,1.512-0.701s-1.375-1.161-2.248-2.011c-0.879-0.846-1.564-1.427-1.725-2.394
			c-0.158-0.969-1.182-0.896-1.176,0.044c0.01,0.944-1.039,1.167-1.039,1.167c-0.129,1.319,0.018,0.396,1.549,1.033
			C23.904,14.821,24.23,16.209,25.496,17.043z"/>
	</g>
</g>
<g id="Layer_15" display="none">
	<path display="inline" d="M22.49,18.966c0.03-0.194-0.008-0.393-0.101-0.57c-0.089-0.171-0.181-0.34-0.274-0.508
		c-0.345-0.612-0.574-1.26-0.596-1.962c-0.03-0.703-0.159-1.387-0.415-2.055c-0.217-0.571-0.574-1.012-1.099-1.333
		c-0.502-0.311-1.05-0.528-1.618-0.684c-0.656-0.18-1.322-0.336-1.978-0.524c-0.772-0.222-1.445-0.592-1.926-1.249
		c-0.1-0.133-0.211-0.253-0.314-0.38c-2.072-2.59-4.149-5.173-6.223-7.76C7.933,1.932,7.93,1.912,7.92,1.899
		c0.181-0.236,0.361-0.463,0.536-0.688c0.017-0.026,0.03-0.058,0.042-0.087C8.55,0.997,8.495,0.894,8.355,0.88
		C8.271,0.871,8.175,0.886,8.09,0.905C7.729,1.007,7.388,1.158,7.072,1.363c-0.076,0.048-0.134,0.053-0.211,0
		C6.801,1.319,6.73,1.276,6.655,1.258c-0.081-0.017-0.1-0.057-0.095-0.127c0.024-0.245,0.077-0.486,0.226-0.695
		c0.058-0.088,0.058-0.171-0.009-0.243C6.675,0.069,6.54,0.009,6.372,0.021c-0.228,0.021-0.416,0.26-0.314,0.437
		C6.115,0.556,6.096,0.626,6.063,0.72C6.036,0.787,6.021,0.863,5.991,0.933C5.969,1.001,5.938,1.063,5.91,1.128
		C5.897,1.125,5.886,1.125,5.874,1.12C5.866,0.871,5.785,0.622,5.901,0.373C5.996,0.174,5.91,0.03,5.688,0.003
		C5.533-0.009,5.381,0.014,5.246,0.09C5.104,0.169,5.081,0.277,5.163,0.419c0.03,0.051,0.062,0.108,0.07,0.164
		c0.036,0.191,0.056,0.389,0.102,0.58c0.052,0.2-0.021,0.317-0.201,0.414c-0.306,0.17-0.492,0.431-0.581,0.764
		c-0.036,0.121-0.078,0.24-0.114,0.36C4.37,2.916,4.265,3.098,4.108,3.26C3.959,3.407,3.827,3.571,3.696,3.742
		C3.502,3.995,3.485,4.288,3.508,4.589c0.007,0.116,0.078,0.146,0.188,0.09c0.054-0.024,0.107-0.06,0.165-0.081
		C3.901,4.585,3.95,4.58,3.984,4.593c0.16,0.052,0.294,0.021,0.415-0.083c0.09-0.076,0.179-0.157,0.266-0.236
		c0.111-0.108,0.242-0.164,0.402-0.183c0.407-0.042,0.799-0.16,1.147-0.377C6.333,3.647,6.453,3.59,6.58,3.547
		c0.29-0.091,0.485-0.022,0.64,0.235C7.289,3.891,7.352,4,7.398,4.118c0.176,0.395,0.354,0.797,0.517,1.197
		c0.222,0.519,0.4,1.05,0.504,1.604C8.486,7.278,8.58,7.63,8.68,7.983c0.135,0.479,0.255,0.969,0.436,1.429
		c0.281,0.719,0.64,1.409,1.125,2.022c0.225,0.284,0.295,0.57,0.184,0.911c-0.117,0.341-0.218,0.688-0.331,1.032
		c-0.135,0.415-0.101,0.804,0.165,1.164c0.09,0.124,0.179,0.249,0.241,0.388c0.399,0.842,0.633,1.713,0.553,2.655
		c-0.041,0.479-0.043,0.967-0.041,1.45c0.005,0.326,0.039,0.665,0.097,0.99c0.048,0.317,0,0.632,0.016,0.951
		c0.039,0.618-0.036,1.233-0.099,1.848c-0.039,0.426-0.144,0.854-0.03,1.286c0.035,0.142-0.009,0.27-0.107,0.381
		c-0.104,0.123-0.208,0.249-0.311,0.372c-0.063,0.076-0.13,0.156-0.189,0.241c-0.08,0.123-0.042,0.229,0.1,0.285
		c0.054,0.023,0.113,0.04,0.171,0.049c0.241,0.033,0.486,0.068,0.729,0.096c0.101,0.013,0.21,0.009,0.311-0.009
		c0.235-0.045,0.329-0.165,0.324-0.398c-0.003-0.102-0.021-0.208-0.036-0.312c-0.024-0.262,0.005-0.52,0.145-0.751
		c0.14-0.242,0.17-0.496,0.14-0.772c-0.086-0.705-0.157-1.405-0.217-2.111c-0.022-0.235-0.022-0.482,0.028-0.711
		c0.085-0.387,0.107-0.769,0.103-1.157c0-0.45,0.042-0.895,0.062-1.34h0.037c0.008,0.039,0.017,0.081,0.022,0.117
		c0.048,0.407,0.107,0.812,0.138,1.217c0.016,0.223-0.034,0.453-0.026,0.682c0.009,0.293,0.046,0.589,0.072,0.887
		c0.005,0.067,0.019,0.126,0.019,0.193c-0.006,0.107-0.028,0.217-0.023,0.321c0.027,0.497,0,0.991-0.041,1.483
		c-0.026,0.326-0.026,0.658-0.071,0.985c-0.027,0.22-0.027,0.432,0,0.652c0.012,0.113,0.009,0.235-0.027,0.345
		c-0.075,0.244-0.172,0.482-0.259,0.722c-0.06,0.162-0.02,0.258,0.151,0.315c0.068,0.021,0.144,0.035,0.214,0.047
		c0.131,0.022,0.261,0.042,0.398,0.062h0.486c0.015-0.005,0.029-0.014,0.041-0.02c0.262-0.067,0.311-0.158,0.252-0.416
		c-0.041-0.185-0.082-0.36-0.101-0.545c-0.008-0.087,0.011-0.191,0.052-0.27c0.125-0.234,0.147-0.484,0.102-0.737
		c-0.153-0.893-0.189-1.798-0.185-2.702c0-0.148,0.031-0.299,0.064-0.444c0.094-0.393,0.115-0.784,0.085-1.184
		c-0.032-0.393-0.066-0.795-0.04-1.187c0.034-0.663,0.121-1.317,0.187-1.977c0.019-0.169,0.034-0.336,0.053-0.515
		c0.052,0.008,0.091,0.012,0.137,0.019c0.345,0.078,0.68,0.196,0.991,0.357c0.352,0.18,0.713,0.271,1.113,0.247
		c0.241-0.011,0.483,0,0.74,0c0.041,0.148,0.085,0.318,0.135,0.489c0.126,0.441,0.357,0.832,0.583,1.227
		c0.185,0.329,0.246,0.671,0.246,1.041c-0.002,0.298,0.015,0.596,0.05,0.894c0.035,0.273,0.046,0.534-0.041,0.802
		c-0.273,0.85-0.537,1.703-0.802,2.56c-0.046,0.151-0.054,0.314-0.127,0.456c-0.103,0.193-0.243,0.379-0.381,0.553
		c-0.185,0.239-0.391,0.461-0.574,0.703c-0.122,0.155-0.059,0.297,0.14,0.317c0.327,0.038,0.659,0.053,0.987-0.012
		c0.151-0.032,0.179-0.059,0.148-0.208c-0.055-0.255,0.021-0.457,0.245-0.595c0.018-0.012,0.036-0.031,0.054-0.046
		c0.185-0.099,0.258-0.264,0.294-0.46c0.045-0.238,0.079-0.484,0.15-0.72c0.22-0.697,0.473-1.386,0.688-2.081
		c0.147-0.486,0.403-0.921,0.642-1.386c0.014,0.051,0.026,0.085,0.029,0.116c0.037,0.273,0.081,0.546,0.098,0.819
		c0.062,0.997,0.124,1.994-0.053,2.988c-0.056,0.336-0.119,0.664-0.381,0.921c-0.147,0.145-0.286,0.296-0.43,0.447
		c-0.085,0.089-0.07,0.159,0.041,0.197c0.066,0.026,0.135,0.043,0.205,0.056c0.355,0.082,0.714,0.086,1.074,0.009
		c0.179-0.041,0.219-0.117,0.17-0.291c-0.042-0.15-0.032-0.293,0.044-0.428c0.045-0.078,0.087-0.16,0.129-0.239
		c0.118-0.23,0.164-0.472,0.11-0.728c-0.082-0.401-0.122-0.807-0.071-1.217c0.042-0.404,0.094-0.81,0.159-1.21
		c0.091-0.56,0.188-1.112,0.301-1.665c0.035-0.18,0.045-0.354-0.037-0.52c-0.29-0.593-0.344-1.226-0.336-1.867
		c0.015-0.826,0.273-1.614,0.392-2.427c0.017,0.026,0.026,0.059,0.037,0.088c0.125,0.436,0.229,0.88,0.369,1.312
		c0.136,0.406,0.297,0.802,0.456,1.202c0.04,0.096,0.085,0.201,0.151,0.283c0.152,0.202,0.265,0.418,0.31,0.662
		c0.034,0.197,0.066,0.395,0.103,0.586l0.36-0.045C22.478,19.135,22.475,19.053,22.49,18.966z"/>
</g>
<g id="Layer_16" display="none">
	<g display="inline">
		<path fill="none" d="M17.844,21.716c0.033,0,0.07-0.008,0.105-0.01C17.914,21.708,17.877,21.716,17.844,21.716L17.844,21.716z"/>
		<path fill="none" d="M12.497,22.5c0.105,0.013,0.233,0.021,0.37,0.028c0,0,0,0,0.001,0C12.731,22.521,12.603,22.513,12.497,22.5z"
			/>
		<path fill="none" d="M12.94,15.504c-0.014-0.005-0.032-0.008-0.043-0.015h-0.001C12.908,15.496,12.927,15.499,12.94,15.504z"/>
		<path fill="#FFFFFF" d="M18.109,23.924c0.126,0.046,0.218,0.155,0.244,0.286l0.035,0.177c0.049,0.005,0.096,0.015,0.142,0.031
			c0.06-0.109,0.14-0.207,0.232-0.287c-0.053-0.074-0.086-0.125-0.087-0.126l-0.054-0.079c-0.248-0.008-0.482-0.089-0.68-0.184
			c0.055,0.051,0.104,0.11,0.146,0.176C18.096,23.919,18.103,23.921,18.109,23.924z"/>
		<path fill="#FFFFFF" d="M25.128,17.952c-0.057-0.014-0.123-0.026-0.193-0.038c-0.224-0.04-0.448-0.081-0.632-0.167
			c0,0.001-0.002,0.001-0.006,0.001c-0.012,0-0.041-0.002-0.086-0.002c-0.099,0-0.217,0.011-0.333,0.03
			c-0.226,0.037-0.531,0.087-0.785,0.087c-0.067,0-0.13-0.003-0.186-0.011c-0.195-0.025-0.648-0.124-0.91-0.254
			c-0.064-0.013-0.243-0.033-0.449-0.038l-0.157-0.003c-0.188-0.003-0.345-0.141-0.373-0.326L21,17.114
			c-0.009-0.016-0.029-0.054-0.05-0.087l-0.168-0.274c-0.069-0.114-0.074-0.256-0.014-0.375c0.045-0.088,0.122-0.154,0.213-0.187
			c0.007-0.016,0.015-0.032,0.023-0.047c-0.022-0.019-0.043-0.04-0.062-0.064l-0.052,0.04c-0.068,0.053-0.151,0.081-0.235,0.081
			c-0.016,0-0.032-0.001-0.048-0.003c-0.116,0.059-0.243,0.088-0.381,0.088c-0.256,0-0.486-0.106-0.624-0.169l-0.104-0.048
			c-0.876-0.403-1.446-0.642-1.694-0.708c-0.03-0.008-0.059-0.012-0.083-0.012c-0.03,0-0.055,0.006-0.075,0.019
			c0.04,0.168,0.161,0.532,0.346,0.936l0.203,0.436c0.066,0.143,0.04,0.311-0.068,0.426c-0.073,0.079-0.176,0.121-0.279,0.121
			c-0.048,0-0.096-0.009-0.142-0.027l-0.443-0.175c-1.013-0.405-1.832-0.61-2.437-0.61c-0.065,0-0.118,0.002-0.159,0.004
			c-0.039,0.002-0.074,0.004-0.102,0.004h-0.001c-0.304,0-0.718-0.139-1.018-0.255l-0.306-0.121
			c-0.09-0.036-0.162-0.104-0.203-0.188c-0.204-0.01-0.364-0.081-0.479-0.21c-0.205,0.087-0.506,0.17-1.021,0.306
			c-0.425,0.113-0.974,0.259-1.148,0.34c-0.016,0.007-0.033,0.017-0.049,0.027c-0.101,0.064-0.137,0.145-0.144,0.164l-0.024,0.104
			c-0.033,0.137-0.139,0.246-0.274,0.282l-0.109,0.029c-0.145,0.038-0.268,0.09-0.368,0.154c-0.115,0.073-0.166,0.142-0.207,0.196
			c-0.037,0.052-0.093,0.128-0.193,0.193l-0.056,0.036c-0.062,0.041-0.135,0.062-0.209,0.062c-0.015,0-0.03-0.001-0.045-0.003
			l-0.066-0.008c-2.943-0.347-4.969-1.29-6.021-2.803C1.747,13.521,1.543,11.89,2,9.798C2.452,7.74,4.006,6.52,5.309,5.686
			c0.803-0.515,1.695-0.989,2.64-1.49c0.366-0.193,0.696-0.369,1.027-0.548c0.252-0.137,0.501-0.283,0.741-0.437
			c0.562-0.359,1.044-0.738,1.453-1.108c-0.01,0.007-0.021,0.013-0.03,0.02c-0.903,0.578-1.984,1.09-3.13,1.632
			C6.736,4.359,5.449,4.968,4.288,5.711c-2.417,1.547-3.593,3.304-3.701,5.531c-0.324,6.746,5.437,8.799,6.595,9.142L7.237,20.4
			c0.077,0.022,0.146,0.067,0.195,0.13l0.038,0.048c0.197,0.254,0.332,0.498,0.383,0.614l0.23,0.51
			c0.068,0.149,0.033,0.325-0.086,0.438c-0.073,0.069-0.168,0.105-0.264,0.105c-0.061,0-0.122-0.015-0.178-0.044l-0.489-0.256
			c-0.24-0.126-0.447-0.19-0.615-0.19c-0.146,0-0.225,0.05-0.294,0.093h0.001c0.007,0-0.05,0.076-0.07,0.184
			c-0.008,0.044-0.004,0.071-0.001,0.078c0.219,0.311,0.53,0.896,0.804,1.42l0.045,0.085l0.142,0.268
			c0.13,0.248,0.357,0.512,0.532,0.711c0.077-0.042,0.16-0.068,0.245-0.078c0.01-0.028,0.022-0.056,0.039-0.082
			c0.061-0.099,0.163-0.164,0.277-0.179c0.002-0.015,0.006-0.031,0.01-0.045c0.006-0.021,0.014-0.041,0.022-0.06L7.762,23.76
			c-0.134-0.119-0.168-0.315-0.082-0.472c0.068-0.125,0.199-0.2,0.337-0.2c0.035,0,0.07,0.005,0.105,0.015l0.815,0.232
			c0.371,0.106,0.586,0.128,0.701,0.128c0.032,0,0.058-0.001,0.076-0.004c0.011-0.062,0.02-0.163,0.023-0.212
			c0.02-0.278-0.144-0.886-0.266-1.229l-0.389-1.084c-0.063-0.177,0.011-0.374,0.175-0.465c0.059-0.033,0.123-0.049,0.187-0.049
			c0.113,0,0.226,0.051,0.301,0.145l0.713,0.896c0.165,0.206,0.811,0.502,2.084,0.656c0.189,0.024,0.469,0.036,0.833,0.036
			c0.565,0,1.161-0.029,1.392-0.042l0.262-0.015c0.007,0,0.015-0.001,0.021-0.001c0.111,0,0.218,0.049,0.291,0.134
			c0.078,0.091,0.109,0.213,0.085,0.33l-0.053,0.25c-0.062,0.294-0.065,0.312,0.581,0.531l0.178,0.06
			c0.281,0.1,0.563,0.15,0.844,0.15c0.125,0,0.227-0.01,0.3-0.016l0.062-0.005c0.01-0.001,0.066-0.004,0.076-0.004
			c0.065,0,0.129,0.008,0.19,0.025c-0.019-0.011-0.035-0.022-0.051-0.032l-0.082-0.051c-0.057-0.024-0.383-0.117-0.766-0.211
			l-0.423-0.104c-0.147-0.037-0.26-0.156-0.286-0.305s0.036-0.3,0.162-0.385l0.361-0.246c0.151-0.103,0.379-0.432,0.485-0.622
			l0.07-0.124c0.068-0.122,0.197-0.195,0.334-0.195c0.026,0,0.053,0.003,0.078,0.008l0.136,0.028
			c0.019,0.003,0.106,0.019,0.22,0.019c0.137,0,0.252-0.024,0.317-0.066c0.25-0.153,0.54-0.229,0.87-0.229
			c0.159,0,0.322,0.018,0.485,0.052c0.07,0.016,0.276,0.04,0.542,0.04c0.527,0,0.97-0.091,1.217-0.249l0.044-0.03
			c0.061-0.044,0.121-0.088,0.188-0.129c0.677-0.434,1.564-0.657,1.992-0.764l0.1-0.025c0.2-0.05,0.625-0.258,0.946-0.464
			l0.113-0.076l0.095-0.065c0.197-0.133,0.724-0.487,0.669-0.809C25.311,17.996,25.196,17.968,25.128,17.952z"/>
		<path fill="#010101" d="M8.847,24.404c0.035-0.015,0.077-0.013,0.119-0.009C8.954,24.395,8.941,24.39,8.93,24.39
			C8.9,24.39,8.872,24.394,8.847,24.404z"/>
		<path fill="#010101" d="M18.99,21.618c0.028,0,0.057,0,0.084,0.001c-0.016,0-0.029-0.005-0.046-0.005
			C19.016,21.614,19.003,21.618,18.99,21.618z"/>
		<path fill="#010101" d="M23.127,17.282c-0.053,0.001-0.104,0.001-0.146-0.004c0.034,0.004,0.073,0.006,0.115,0.006
			C23.105,17.285,23.117,17.282,23.127,17.282z"/>
		<path fill="#010101" d="M20.238,15.705c-0.014,0-0.029-0.002-0.043-0.003c0.01,0.001,0.022,0.006,0.032,0.006
			C20.231,15.708,20.234,15.705,20.238,15.705z"/>
		<path fill="#010101" d="M14.555,15.904c-0.034,0.001-0.085-0.011-0.13-0.018c0.041,0.007,0.088,0.018,0.12,0.018
			C14.548,15.904,14.552,15.904,14.555,15.904z"/>
		<path fill="#010101" d="M21.494,16.72c0.02,0,0.045,0,0.07,0c-0.006,0-0.015-0.001-0.021-0.001
			C21.523,16.719,21.51,16.72,21.494,16.72z"/>
		<path fill="#010101" d="M13.1,15.339c-0.009,0-0.017,0-0.024,0c0.004,0,0.004,0.002,0.008,0.002
			C13.088,15.341,13.095,15.339,13.1,15.339z"/>
		<path fill="#010101" d="M14.053,15.568c0.037-0.004,0.074-0.008,0.107-0.007c-0.009,0-0.014-0.002-0.022-0.002
			C14.111,15.559,14.081,15.565,14.053,15.568z"/>
		<path fill="#010101" d="M18.303,24.971c0.016-0.01,0.041,0.003,0.065,0.014c-0.014-0.006-0.031-0.02-0.042-0.02
			C18.317,24.965,18.31,24.967,18.303,24.971z"/>
		<path fill="#010101" d="M19.178,24.536c0.028-0.018,0.053-0.019,0.076-0.017c-0.003,0-0.007-0.005-0.011-0.005
			C19.223,24.514,19.201,24.521,19.178,24.536z"/>
		<path fill="#010101" d="M13.474,15.049c0.031,0,0.059,0,0.082,0.001c-0.021-0.001-0.04-0.003-0.068-0.003
			C13.483,15.048,13.478,15.049,13.474,15.049z"/>
		<path fill="#010101" d="M18.824,23.323c-0.085,0.026-0.175,0.018-0.265,0.006c0.033,0.004,0.066,0.018,0.099,0.018
			C18.715,23.347,18.771,23.34,18.824,23.323z"/>
		<path fill="#010101" d="M8.511,24.819c0.032-0.001,0.081,0.023,0.125,0.04c-0.041-0.015-0.088-0.04-0.119-0.04
			C8.515,24.819,8.513,24.819,8.511,24.819z"/>
		<path fill="#010101" d="M17.384,24.105c0.035-0.004,0.061,0.008,0.088,0.018c-0.021-0.007-0.038-0.02-0.062-0.02
			C17.4,24.104,17.393,24.104,17.384,24.105z"/>
		<path fill="#010101" d="M12.897,15.489c-0.035-0.021-0.062-0.048-0.08-0.078C12.835,15.441,12.861,15.468,12.897,15.489
			L12.897,15.489z"/>
		<path fill="#010101" d="M12.867,22.527c0.039,0.002,0.08,0.002,0.121,0.004C12.948,22.53,12.906,22.529,12.867,22.527
			C12.867,22.527,12.867,22.527,12.867,22.527z"/>
		<path fill="#010101" d="M13.376,22.538c0.033,0,0.065,0,0.099,0c-0.055,0-0.107,0-0.161,0
			C13.335,22.537,13.354,22.538,13.376,22.538z"/>
		<path fill="#010101" d="M20.059,21.513c0.015,0,0.032-0.001,0.048-0.002c-0.019,0-0.039,0.001-0.058,0.001
			C20.053,21.513,20.055,21.513,20.059,21.513z"/>
		<path fill="#010101" d="M17.843,21.716c0.034,0,0.071-0.008,0.106-0.01C17.914,21.708,17.875,21.716,17.843,21.716
			C17.843,21.716,17.843,21.716,17.843,21.716z"/>
		<path fill="#010101" d="M13.641,15.444c-0.002,0-0.002,0-0.004,0c0.034,0,0.075,0.001,0.122,0.008
			C13.714,15.447,13.674,15.444,13.641,15.444z"/>
		<path fill="#010101" d="M14.988,16.093c-0.006,0-0.011,0-0.017,0c0.066,0.003,0.139,0.008,0.222,0.017
			C15.118,16.102,15.05,16.097,14.988,16.093z"/>
		<path fill="#010101" d="M14.826,16.089c-0.011,0-0.016,0-0.025,0c0.031,0,0.068,0,0.105,0.001
			C14.88,16.091,14.85,16.089,14.826,16.089z"/>
		<path fill="#010101" d="M24.21,17.361L24.21,17.361c0.037,0,0.067,0.003,0.1,0.006C24.278,17.365,24.248,17.361,24.21,17.361z"/>
		<path fill="#010101" d="M17.722,14.965c-0.026,0-0.046,0.007-0.07,0.011c0.072-0.01,0.153-0.012,0.252,0.014
			C17.837,14.972,17.776,14.965,17.722,14.965z"/>
		<path fill="#010101" d="M16.977,23.935c0.023,0,0.035-0.002,0.057-0.003c-0.033,0-0.071,0-0.108-0.001
			C16.94,23.931,16.962,23.935,16.977,23.935z"/>
		<path fill="#010101" d="M14.803,22.495c-0.006,0-0.217,0.012-0.513,0.023C14.587,22.507,14.797,22.495,14.803,22.495z"/>
		<path fill="#010101" d="M6.452,21.37c-0.009,0-0.013,0.003-0.021,0.004c0.015,0,0.029-0.001,0.044,0
			C6.469,21.374,6.459,21.37,6.452,21.37z"/>
		<path fill="#010101" d="M9.639,23.848c0.055,0,0.093-0.007,0.134-0.014c-0.043,0.007-0.088,0.013-0.147,0.012
			C9.629,23.846,9.635,23.848,9.639,23.848z"/>
		<path d="M25.987,18.422c-0.191-0.898-0.516-0.982-0.726-1.033c-0.211-0.049-0.551-0.086-0.723-0.169
			c-0.041-0.021-0.095-0.034-0.154-0.042c-0.019-0.002-0.039-0.002-0.059-0.003c-0.036-0.003-0.072-0.007-0.111-0.007
			c-0.008,0-0.017,0.001-0.025,0.001c-0.046,0-0.092,0.004-0.138,0.007c-0.027,0.002-0.055,0.002-0.081,0.005
			c-0.069,0.007-0.135,0.016-0.188,0.025c-0.071,0.012-0.171,0.027-0.271,0.041c-0.025,0.004-0.046,0.007-0.072,0.01
			c-0.108,0.014-0.217,0.023-0.312,0.025c-0.01,0-0.021,0.002-0.03,0.002c-0.042,0-0.081-0.002-0.115-0.006
			c-0.208-0.026-0.602-0.126-0.744-0.206s-0.676-0.09-0.676-0.09c-0.013-0.077-0.124-0.26-0.124-0.26s0.017-0.001,0.041-0.002
			c0.005,0,0.011,0,0.016,0c0.016,0,0.029-0.001,0.05-0.001c0.006,0,0.015,0.001,0.021,0.001c0.03,0,0.064,0.003,0.099,0.006
			c0.021,0.001,0.04,0.002,0.062,0.005c0.055,0.008,0.108,0.02,0.148,0.04c0.056,0.029,0.143,0.036,0.224,0.037
			c0.006,0,0.011,0.003,0.017,0.003c0.01,0,0.016-0.001,0.025-0.001c0.033,0,0.063-0.002,0.092-0.004
			c0.017-0.001,0.03-0.001,0.043-0.003c0.03-0.003,0.056-0.006,0.056-0.006c-0.12-0.143-0.719-0.513-0.719-0.513
			c0.065-0.091,0.163-0.172,0.274-0.243c0.326-0.209,0.759-0.322,0.759-0.322c-0.066-0.056-0.159-0.09-0.26-0.115
			c-0.017-0.004-0.031-0.009-0.049-0.012c-0.099-0.02-0.204-0.028-0.311-0.029c-0.006,0-0.012-0.002-0.019-0.002
			c-0.02,0-0.037,0.002-0.056,0.002c-0.051,0.001-0.101,0.003-0.148,0.006c-0.026,0.002-0.05,0.003-0.074,0.006
			c-0.048,0.004-0.092,0.009-0.132,0.015c-0.021,0.002-0.038,0.004-0.057,0.007c-0.039,0.005-0.071,0.011-0.099,0.016
			c-0.012,0.002-0.021,0.003-0.031,0.005c-0.024,0.005-0.045,0.009-0.045,0.009c-0.041-0.104,0.631-0.601,0.631-0.601
			c-0.052-0.023-0.11-0.034-0.172-0.034c-0.012,0-0.024,0.004-0.036,0.005c-0.024,0.001-0.051,0.007-0.076,0.011
			c-0.055,0.009-0.108,0.021-0.164,0.04c-0.028,0.009-0.056,0.019-0.084,0.03c-0.058,0.023-0.113,0.049-0.17,0.077
			c-0.021,0.011-0.043,0.021-0.064,0.032c-0.073,0.04-0.144,0.081-0.203,0.119c-0.131,0.084-0.221,0.154-0.221,0.154
			c-0.015-0.127,0.078-0.344,0.078-0.344s-0.271,0.173-0.406,0.43c-0.028,0.059-0.064,0.099-0.105,0.125
			c-0.04,0.025-0.084,0.034-0.133,0.036c-0.004,0-0.007,0.003-0.011,0.003c-0.01,0-0.022-0.005-0.032-0.006
			c-0.041-0.003-0.084-0.011-0.128-0.024c-0.018-0.005-0.034-0.009-0.052-0.016c-0.058-0.021-0.116-0.044-0.177-0.073
			c-0.268-0.122-1.429-0.665-1.888-0.787c-0.081-0.021-0.157-0.031-0.229-0.031c-0.027,0-0.051,0.008-0.077,0.011
			c-0.023,0.002-0.048,0.005-0.07,0.01c-0.088,0.018-0.17,0.046-0.238,0.089c-0.125,0.08-0.214,0.195-0.262,0.312
			c-0.104,0.262,0.398,1.352,0.398,1.352c-0.219-0.087-0.418-0.16-0.608-0.226c-0.054-0.019-0.104-0.035-0.156-0.052
			c-0.136-0.045-0.265-0.085-0.385-0.12c-0.045-0.013-0.091-0.027-0.134-0.039c-0.15-0.041-0.293-0.077-0.42-0.104
			c0,0-0.001,0-0.002,0c-0.131-0.027-0.246-0.047-0.354-0.063c-0.031-0.004-0.06-0.008-0.089-0.012
			c-0.074-0.009-0.142-0.017-0.204-0.021c-0.025-0.002-0.052-0.004-0.076-0.006c-0.07-0.004-0.135-0.006-0.19-0.007
			c-0.005,0-0.012,0-0.016,0c0,0-0.002,0-0.003,0c-0.057,0-0.103,0.002-0.145,0.003c-0.007,0-0.017,0-0.022,0
			c-0.047,0.002-0.084,0.004-0.113,0.004c-0.003,0-0.007,0-0.01,0c-0.032,0-0.079-0.011-0.12-0.018
			c-0.035-0.006-0.062-0.006-0.102-0.016c-0.044-0.01-0.088-0.025-0.134-0.038c-0.043-0.012-0.086-0.023-0.128-0.037
			c-0.033-0.011-0.055-0.019-0.085-0.029c-0.122-0.042-0.221-0.08-0.221-0.08c0.017-0.015,0.034-0.027,0.053-0.039
			c0.06-0.038,0.121-0.06,0.183-0.073c0.021-0.004,0.041-0.004,0.062-0.007c0.028-0.003,0.059-0.01,0.085-0.01
			c0.009,0,0.014,0.002,0.022,0.002c0.042,0.001,0.078,0.005,0.109,0.011c0.014,0.002,0.025,0.002,0.036,0.004
			c0.032,0.007,0.057,0.014,0.057,0.014c-0.059-0.08-0.13-0.137-0.204-0.186c-0.023-0.015-0.047-0.026-0.07-0.038
			c-0.055-0.028-0.108-0.052-0.163-0.068c-0.024-0.007-0.048-0.015-0.071-0.02c-0.061-0.013-0.115-0.021-0.167-0.023
			c-0.012,0-0.025-0.003-0.036-0.003c-0.003,0-0.008-0.001-0.011-0.001c-0.06,0-0.108,0.006-0.142,0.016
			c-0.037,0.01-0.105,0.027-0.177,0.042c-0.009,0.001-0.014,0.002-0.021,0.004c-0.069,0.014-0.141,0.023-0.2,0.025
			c-0.005,0-0.012,0.002-0.017,0.002c-0.004,0-0.004-0.002-0.008-0.002c-0.042-0.001-0.074-0.008-0.09-0.024
			c-0.002-0.002-0.001-0.007-0.003-0.009c-0.011-0.021-0.007-0.049,0.033-0.095c0.025-0.027,0.052-0.05,0.083-0.069
			c0.057-0.037,0.123-0.059,0.188-0.073c0.024-0.005,0.045-0.006,0.068-0.009c0.041-0.005,0.082-0.011,0.118-0.011
			c0.004,0,0.01-0.001,0.014-0.001c0.028,0,0.047,0.002,0.068,0.003c0.011,0.001,0.025,0.001,0.034,0.002
			c0.027,0.002,0.045,0.005,0.045,0.005c-0.12-0.072-0.236-0.104-0.351-0.123c-0.026-0.004-0.054-0.008-0.08-0.01
			c-0.024-0.002-0.05-0.01-0.074-0.01c-0.082,0-0.16,0.01-0.235,0.027c-0.001,0-0.003,0.001-0.004,0.001
			C12.79,14.966,12.7,15,12.617,15.038c-0.022,0.01-0.045,0.02-0.066,0.03c-0.069,0.034-0.135,0.068-0.186,0.095
			c-0.25,0.135-1.788,0.468-2.216,0.664c-0.041,0.02-0.081,0.042-0.119,0.066c-0.321,0.205-0.39,0.506-0.39,0.506
			c-0.227,0.06-0.397,0.141-0.527,0.225c-0.279,0.179-0.367,0.369-0.402,0.391C2.167,16.241,1.945,12.73,2.56,9.923
			c0.363-1.654,1.518-2.765,3.055-3.75c1.071-0.686,2.328-1.311,3.633-2.017c0.274-0.149,0.533-0.302,0.777-0.459
			c2.601-1.665,3.579-3.695,3.579-3.695S13.583,0,13.543,0c-0.002,0-0.008,0.001-0.011,0.001c-0.009,0-0.024,0.002-0.034,0.002
			c-0.043,0.001-0.096,0.008-0.163,0.019c-0.027,0.005-0.059,0.012-0.089,0.019c-0.069,0.016-0.147,0.041-0.233,0.072
			c-0.039,0.014-0.075,0.025-0.117,0.043c-0.132,0.056-0.274,0.125-0.435,0.228c-0.179,0.115-0.375,0.264-0.582,0.457
			c-0.3,0.28-0.654,0.542-1.048,0.795c-1.85,1.185-4.59,2.14-6.851,3.587c-2.127,1.361-3.827,3.158-3.967,5.991
			c-0.347,7.2,5.82,9.375,7.007,9.725c0.212,0.271,0.312,0.493,0.312,0.493c-0.168-0.088-0.316-0.144-0.453-0.184
			c-0.019-0.005-0.037-0.013-0.055-0.018c-0.127-0.033-0.24-0.047-0.343-0.049c-0.008,0-0.019-0.004-0.026-0.004
			s-0.013,0.003-0.021,0.003c-0.128,0.002-0.237,0.024-0.329,0.056c-0.008,0.003-0.016,0.004-0.023,0.007
			c-0.094,0.035-0.171,0.078-0.23,0.116c-0.226,0.144-0.494,0.715-0.234,1.083c0.263,0.369,0.725,1.283,0.959,1.717
			c0.225,0.434,0.643,0.839,0.852,1.106c0.214,0.267,0.511,0.73,0.511,0.73c0.033-0.384-0.173-0.819-0.056-0.894
			c0.012-0.008,0.027-0.011,0.046-0.011C8.385,25.188,8.737,26,8.737,26c0.096-0.466-0.227-1.181-0.227-1.181
			c0.002,0,0.004,0,0.006,0c0.031,0,0.078,0.024,0.119,0.04c0.033,0.012,0.06,0.013,0.096,0.031
			c0.051,0.026,0.104,0.062,0.156,0.096c0.033,0.021,0.067,0.039,0.101,0.062c0.067,0.047,0.124,0.09,0.175,0.129
			c0.012,0.009,0.029,0.021,0.039,0.029c0.055,0.043,0.09,0.072,0.09,0.072c-0.046-0.312-0.445-0.873-0.445-0.873
			C8.872,24.394,8.9,24.39,8.93,24.39c0.012,0,0.024,0.005,0.036,0.006c0.019,0.002,0.037,0.005,0.056,0.009
			c0.029,0.007,0.057,0.015,0.084,0.026c0.017,0.006,0.033,0.012,0.048,0.019c0.029,0.013,0.053,0.025,0.074,0.037
			c0.009,0.004,0.02,0.01,0.026,0.014c0.023,0.014,0.038,0.023,0.038,0.023c-0.073-0.245-0.512-0.631-0.512-0.631
			c0.181,0.051,0.337,0.087,0.477,0.112c0.054,0.009,0.093,0.01,0.141,0.015c0.078,0.01,0.159,0.021,0.224,0.021
			c0.005,0,0.013,0.002,0.018,0.002c0.064,0,0.114-0.01,0.166-0.018c0.022-0.003,0.051-0.003,0.07-0.007
			c0.072-0.017,0.132-0.041,0.181-0.072c0.223-0.143,0.236-0.42,0.256-0.682c0.037-0.503-0.299-1.44-0.299-1.44
			c0.443,0.556,1.727,0.78,2.461,0.869c0.109,0.014,0.242,0.022,0.383,0.029c0.042,0.002,0.085,0.003,0.128,0.004
			c0.11,0.003,0.223,0.005,0.339,0.006c0.021,0,0.04,0.001,0.061,0.001c0.029,0,0.059,0,0.089,0c0.042,0,0.085,0,0.127-0.001
			c0.09-0.001,0.178-0.002,0.265-0.004c0.056-0.001,0.108-0.003,0.161-0.004c0.061-0.002,0.118-0.003,0.175-0.005
			c0.045-0.001,0.089-0.003,0.13-0.005c0.067-0.002,0.129-0.005,0.186-0.007c0.032-0.002,0.06-0.003,0.088-0.004
			c0.047-0.002,0.086-0.004,0.117-0.006c0.02-0.001,0.04-0.002,0.053-0.002c0.024-0.001,0.04-0.002,0.04-0.002
			c-0.188,0.891,0.435,1.014,1.136,1.259c0.193,0.069,0.372,0.11,0.537,0.137c0.059,0.009,0.105,0.012,0.159,0.018
			c0.103,0.011,0.203,0.021,0.289,0.022c0.013,0,0.03,0.003,0.042,0.003c0.054,0,0.095-0.003,0.141-0.005
			c0.029-0.001,0.064-0.001,0.09-0.003c0.073-0.005,0.134-0.011,0.177-0.014c0.009-0.001,0.017-0.001,0.025-0.001
			c0.024,0,0.042,0.012,0.062,0.02c0.015,0.005,0.032,0.006,0.045,0.014c0.021,0.014,0.038,0.032,0.054,0.051
			c0.008,0.009,0.019,0.017,0.025,0.026c0.016,0.023,0.024,0.043,0.033,0.062c0.003,0.005,0.008,0.013,0.01,0.018
			c0.009,0.022,0.013,0.037,0.013,0.037c-0.083,0.188-0.071,0.618-0.071,0.618c0.023-0.124,0.271-0.32,0.271-0.32
			s0.138,0.694,0.233,0.85c0.096,0.157,0.271,0.242,0.271,0.242c-0.087-0.142-0.119-0.523-0.078-0.705
			c0.004-0.023,0.013-0.038,0.025-0.045c0.007-0.004,0.015-0.006,0.023-0.006c0.011,0,0.028,0.014,0.042,0.02
			s0.026,0.009,0.042,0.021c0.022,0.016,0.048,0.04,0.073,0.064c0.018,0.017,0.034,0.03,0.053,0.051
			c0.029,0.031,0.061,0.068,0.091,0.105c0.017,0.02,0.033,0.038,0.05,0.059c0.047,0.059,0.094,0.12,0.137,0.178
			c0.205,0.286,0.659,0.396,0.659,0.396s-0.196-0.421-0.392-0.71c-0.189-0.295-0.054-0.5,0.087-0.605
			c0.005-0.002,0.007-0.004,0.01-0.006c0.023-0.015,0.045-0.021,0.065-0.021c0.004,0,0.008,0.005,0.011,0.005
			c0.043,0.005,0.085,0.031,0.137,0.062s0.114,0.062,0.207,0.063c0.24,0.003,0.393,0.201,0.393,0.201
			c-0.002-0.221-0.278-0.518-0.431-0.651c-0.153-0.132-0.405-0.508-0.405-0.508c0.056-0.099,0.427-0.407,0.427-0.407
			c-0.037-0.03-0.114-0.047-0.214-0.049c-0.008,0-0.008-0.003-0.016-0.003c-0.004,0-0.01,0.001-0.014,0.001
			c-0.044,0-0.097,0.007-0.15,0.015c-0.025,0.003-0.046,0.003-0.074,0.008c-0.086,0.016-0.182,0.039-0.289,0.072
			c-0.054,0.017-0.109,0.024-0.166,0.024c-0.032,0-0.065-0.013-0.099-0.018c-0.04-0.006-0.081-0.011-0.121-0.022
			c-0.066-0.018-0.128-0.04-0.191-0.068c-0.035-0.016-0.071-0.029-0.104-0.046c-0.071-0.037-0.134-0.072-0.193-0.108
			c-0.092-0.056-0.173-0.107-0.22-0.132c-0.171-0.083-0.888-0.256-0.888-0.256c0.338-0.231,0.664-0.817,0.664-0.817
			s0.143,0.031,0.333,0.031l0.003,0c0.015,0,0.032-0.004,0.047-0.004c0.084-0.002,0.174-0.007,0.266-0.027
			c0.109-0.024,0.218-0.063,0.315-0.125c0.003-0.001,0.007-0.003,0.009-0.005c0.075-0.045,0.158-0.075,0.245-0.097
			c0.028-0.007,0.058-0.01,0.087-0.015c0.06-0.01,0.119-0.018,0.18-0.019c0.013,0,0.025-0.004,0.038-0.004
			c0.017,0,0.03,0.005,0.046,0.005c0.112,0.003,0.224,0.014,0.322,0.036c0.046,0.01,0.128,0.021,0.219,0.03
			c0.025,0.002,0.046,0.004,0.073,0.007c0.104,0.008,0.223,0.014,0.355,0.015c0.005,0,0.008,0,0.013,0
			c0.021,0,0.044-0.002,0.065-0.002c0.086-0.001,0.175-0.004,0.268-0.011c0.043-0.003,0.085-0.008,0.129-0.013
			c0.081-0.008,0.162-0.019,0.243-0.032c0.047-0.007,0.092-0.016,0.139-0.025c0.083-0.018,0.164-0.04,0.244-0.065
			c0.039-0.012,0.079-0.022,0.118-0.037c0.114-0.042,0.225-0.092,0.321-0.154c0.023-0.016,0.049-0.033,0.073-0.051
			c0.048-0.036,0.1-0.071,0.152-0.105c0.662-0.424,1.611-0.637,1.927-0.719c0.298-0.073,0.79-0.326,1.116-0.536
			c0.048-0.031,0.093-0.061,0.131-0.089C25.207,19.708,26.118,19.19,25.987,18.422z M18.622,23.925l0.054,0.079
			c0.001,0.001,0.034,0.052,0.087,0.126c-0.093,0.081-0.173,0.178-0.232,0.287c-0.046-0.016-0.093-0.026-0.142-0.031l-0.035-0.177
			c-0.026-0.131-0.118-0.239-0.244-0.286c-0.007-0.002-0.014-0.005-0.021-0.007c-0.042-0.066-0.092-0.125-0.146-0.176
			C18.14,23.835,18.374,23.917,18.622,23.925z M24.21,17.361c0.038,0,0.068,0.003,0.1,0.006
			C24.277,17.364,24.247,17.361,24.21,17.361L24.21,17.361z M17.722,14.965c0.055,0,0.115,0.007,0.182,0.025
			c-0.099-0.026-0.18-0.024-0.252-0.014C17.676,14.972,17.695,14.965,17.722,14.965z M14.988,16.093
			c0.062,0.003,0.13,0.008,0.205,0.016c-0.083-0.009-0.155-0.014-0.222-0.017C14.978,16.093,14.982,16.093,14.988,16.093z
			 M14.826,16.089c0.023,0,0.054,0.001,0.08,0.002c-0.037-0.001-0.074-0.001-0.105-0.001C14.811,16.09,14.815,16.089,14.826,16.089z
			 M13.641,15.444c0.033,0,0.073,0.002,0.118,0.009c-0.047-0.007-0.088-0.009-0.122-0.008
			C13.639,15.445,13.639,15.444,13.641,15.444z M12.897,15.489c0.011,0.007,0.029,0.01,0.043,0.015
			C12.927,15.499,12.908,15.496,12.897,15.489c-0.036-0.021-0.062-0.048-0.08-0.078C12.836,15.441,12.862,15.468,12.897,15.489z
			 M6.452,21.37c0.007,0,0.017,0.003,0.023,0.003c-0.015,0-0.029,0-0.044,0C6.439,21.374,6.443,21.37,6.452,21.37z M9.639,23.848
			c-0.004,0-0.01-0.001-0.014-0.001c0.06,0,0.104-0.005,0.147-0.012C9.731,23.84,9.693,23.848,9.639,23.848z M12.867,22.527
			c-0.137-0.006-0.265-0.015-0.37-0.028C12.603,22.513,12.731,22.521,12.867,22.527c0.039,0.002,0.081,0.002,0.121,0.004
			C12.947,22.53,12.906,22.529,12.867,22.527z M13.376,22.538c-0.021,0-0.041-0.001-0.062-0.001c0.054,0,0.106,0,0.161,0
			C13.441,22.538,13.409,22.538,13.376,22.538z M14.29,22.519c0.296-0.011,0.507-0.023,0.513-0.023
			C14.797,22.495,14.587,22.507,14.29,22.519z M16.977,23.935c-0.015,0-0.036-0.004-0.052-0.004c0.037,0,0.075,0.001,0.108,0.001
			C17.012,23.933,17,23.935,16.977,23.935z M17.844,21.716L17.844,21.716c-0.001,0-0.001,0-0.002,0c0.033,0,0.072-0.008,0.107-0.01
			C17.914,21.708,17.877,21.716,17.844,21.716z M20.059,21.513c-0.004,0-0.006,0-0.01,0c0.019,0,0.039-0.001,0.058-0.001
			C20.091,21.512,20.073,21.513,20.059,21.513z M24.753,19.328l-0.095,0.065l-0.113,0.076c-0.321,0.206-0.746,0.414-0.946,0.464
			l-0.1,0.025c-0.428,0.107-1.315,0.33-1.992,0.764c-0.066,0.041-0.127,0.084-0.188,0.129l-0.044,0.03
			c-0.247,0.158-0.689,0.249-1.217,0.249c-0.266,0-0.472-0.024-0.542-0.04c-0.163-0.035-0.326-0.052-0.485-0.052
			c-0.33,0-0.62,0.076-0.87,0.229c-0.065,0.042-0.181,0.066-0.317,0.066c-0.113,0-0.201-0.016-0.22-0.019l-0.136-0.028
			c-0.025-0.005-0.052-0.008-0.078-0.008c-0.137,0-0.266,0.073-0.334,0.195l-0.07,0.124c-0.106,0.19-0.334,0.519-0.485,0.622
			l-0.361,0.246c-0.126,0.085-0.188,0.236-0.162,0.385s0.139,0.269,0.286,0.305l0.423,0.104c0.383,0.094,0.709,0.187,0.766,0.211
			l0.082,0.051c0.016,0.01,0.032,0.021,0.051,0.032c-0.062-0.017-0.125-0.025-0.19-0.025c-0.01,0-0.066,0.003-0.076,0.004
			l-0.062,0.005c-0.073,0.006-0.175,0.016-0.3,0.016c-0.28,0-0.562-0.05-0.844-0.15l-0.178-0.06
			c-0.646-0.219-0.643-0.237-0.581-0.531l0.053-0.25c0.024-0.117-0.007-0.239-0.085-0.33c-0.073-0.085-0.18-0.134-0.291-0.134
			c-0.007,0-0.015,0-0.021,0.001l-0.262,0.015c-0.23,0.013-0.826,0.042-1.392,0.042c-0.364,0-0.644-0.012-0.833-0.036
			c-1.273-0.153-1.919-0.45-2.084-0.656l-0.713-0.896c-0.075-0.094-0.188-0.145-0.301-0.145c-0.063,0-0.128,0.016-0.187,0.049
			c-0.164,0.091-0.238,0.288-0.175,0.465l0.389,1.084c0.122,0.342,0.285,0.951,0.266,1.229c-0.004,0.05-0.013,0.15-0.023,0.212
			c-0.019,0.002-0.044,0.004-0.076,0.004c-0.115,0-0.33-0.022-0.701-0.128l-0.815-0.232c-0.035-0.01-0.07-0.015-0.105-0.015
			c-0.138,0-0.269,0.074-0.337,0.2c-0.086,0.157-0.052,0.354,0.082,0.472l0.442,0.391c-0.009,0.019-0.017,0.039-0.022,0.06
			c-0.004,0.015-0.008,0.03-0.01,0.045c-0.114,0.015-0.217,0.08-0.277,0.179c-0.017,0.026-0.029,0.054-0.039,0.082
			c-0.085,0.01-0.168,0.036-0.245,0.078c-0.175-0.2-0.402-0.464-0.532-0.711l-0.142-0.268L6.892,23.53
			c-0.273-0.524-0.585-1.109-0.804-1.42c-0.003-0.006-0.007-0.033,0.001-0.078c0.021-0.108,0.077-0.184,0.07-0.184H6.158
			c0.069-0.043,0.147-0.093,0.294-0.093c0.168,0,0.375,0.064,0.615,0.19L7.557,22.2c0.056,0.029,0.117,0.044,0.178,0.044
			c0.096,0,0.19-0.036,0.264-0.105c0.119-0.112,0.154-0.288,0.086-0.438l-0.23-0.51c-0.051-0.116-0.186-0.36-0.383-0.614
			L7.433,20.53c-0.05-0.062-0.118-0.108-0.195-0.13l-0.056-0.016c-1.158-0.343-6.919-2.396-6.595-9.142
			c0.108-2.227,1.284-3.984,3.701-5.531C5.449,4.968,6.736,4.359,8.01,3.755c1.146-0.542,2.227-1.054,3.13-1.632
			c0.01-0.007,0.021-0.013,0.03-0.02c-0.409,0.37-0.892,0.749-1.453,1.108c-0.24,0.154-0.489,0.3-0.741,0.437
			c-0.331,0.18-0.661,0.355-1.027,0.548c-0.944,0.501-1.837,0.975-2.64,1.49C4.006,6.52,2.452,7.74,2,9.798
			c-0.457,2.091-0.253,3.722,0.624,4.987c1.052,1.513,3.077,2.456,6.021,2.803l0.066,0.008c0.015,0.002,0.03,0.003,0.045,0.003
			c0.074,0,0.146-0.021,0.209-0.062l0.056-0.036c0.101-0.065,0.156-0.141,0.193-0.193c0.041-0.055,0.092-0.124,0.207-0.196
			c0.101-0.064,0.224-0.116,0.368-0.154l0.109-0.029c0.136-0.037,0.241-0.145,0.274-0.282l0.024-0.104
			c0.007-0.019,0.043-0.099,0.144-0.164c0.016-0.01,0.033-0.02,0.049-0.027c0.175-0.081,0.724-0.227,1.148-0.34
			c0.515-0.136,0.815-0.218,1.021-0.306c0.115,0.129,0.275,0.2,0.479,0.21c0.041,0.084,0.113,0.152,0.203,0.188l0.306,0.121
			c0.3,0.116,0.714,0.255,1.018,0.255h0.001c0.027,0,0.062-0.001,0.102-0.004c0.041-0.001,0.094-0.004,0.159-0.004
			c0.604,0,1.424,0.206,2.437,0.61l0.443,0.175c0.046,0.019,0.094,0.027,0.142,0.027c0.104,0,0.206-0.042,0.279-0.121
			c0.108-0.115,0.135-0.283,0.068-0.426l-0.203-0.436c-0.185-0.404-0.306-0.768-0.346-0.936c0.021-0.012,0.045-0.019,0.075-0.019
			c0.024,0,0.053,0.004,0.083,0.012c0.248,0.066,0.818,0.304,1.694,0.708l0.104,0.048c0.138,0.063,0.368,0.169,0.624,0.169
			c0.138,0,0.265-0.03,0.381-0.088c0.016,0.002,0.032,0.003,0.048,0.003c0.084,0,0.167-0.028,0.235-0.081l0.052-0.04
			c0.019,0.024,0.039,0.045,0.062,0.064c-0.009,0.015-0.017,0.031-0.023,0.047c-0.091,0.033-0.168,0.099-0.213,0.187
			c-0.061,0.119-0.056,0.261,0.014,0.375l0.168,0.274c0.021,0.033,0.041,0.071,0.05,0.087l0.018,0.117
			c0.028,0.185,0.186,0.323,0.373,0.326l0.157,0.003c0.206,0.005,0.385,0.025,0.449,0.038c0.262,0.13,0.715,0.229,0.91,0.254
			c0.056,0.007,0.118,0.011,0.186,0.011c0.254,0,0.56-0.05,0.785-0.087c0.116-0.02,0.234-0.03,0.333-0.03
			c0.045,0,0.074,0.002,0.086,0.002c0.004,0,0.006,0,0.006-0.001c0.184,0.086,0.408,0.127,0.632,0.167
			c0.07,0.012,0.137,0.024,0.193,0.038c0.068,0.017,0.183,0.044,0.294,0.568C25.477,18.841,24.95,19.195,24.753,19.328z"/>
	</g>
</g>
<g id="Layer_12">
	<g>
		<path d="M9.277,9.608c0,0-2.114-0.007-3.382-0.01l4.614-4.617c-0.003,0.718-0.003,3.84-0.003,3.84h1.154L11.662,3l-1.493,0.001
			L10.168,3l-0.001,0.001L5.844,3.005L5.841,4.156c0,0,1.949,0.006,3.126,0.009L4.243,8.747c0.002-0.75,0.002-4.012,0.002-4.012
			H3.001L3,10.815l6.273-0.005L9.277,9.608z"/>
		<polygon points="18.034,3 18.034,8.028 13.074,8.028 13.074,12.984 8.098,12.984 8.098,17.943 8.033,17.943 4.914,17.943 
			3,17.943 3,22.9 3,23 3.021,23 23,23 23,3.214 23,3 		"/>
	</g>
</g>
</svg>
