<?xml version="1.0" encoding="utf-8"?>
<!-- Generator: Adobe Illustrator 16.0.0, SVG Export Plug-In . SVG Version: 6.00 Build 0)  -->
<!DOCTYPE svg PUBLIC "-//W3C//DTD SVG 1.0//EN" "http://www.w3.org/TR/2001/REC-SVG-20010904/DTD/svg10.dtd">
<svg version="1.0" xmlns="http://www.w3.org/2000/svg" xmlns:xlink="http://www.w3.org/1999/xlink" x="0px" y="0px" width="26px"
	 height="26px" viewBox="0 0 26 26" enable-background="new 0 0 26 26" xml:space="preserve">
<g id="Layer_14_1_" opacity="0.9">
	<rect opacity="0" fill="#9E4222" width="26" height="26"/>
</g>
<g id="Layer_2">
	<g>
		<path fill="none" d="M3.612,15.137l7.209,7.208l11.34-11.344l-7.21-7.209L3.612,15.137z M10.851,20.035l-4.929-4.928l9.001-9.003
			l4.929,4.928L10.851,20.035z"/>
		<path d="M25.299,8.027l-1.855-1.855c-0.399,0.233-0.858,0.376-1.354,0.376c-1.49,0-2.699-1.208-2.699-2.699
			c0-0.497,0.142-0.956,0.376-1.355l-1.792-1.793c-0.748-0.747-1.78-0.925-2.309-0.397L0.303,15.666
			c-0.526,0.526-0.349,1.56,0.398,2.308l1.782,1.782c0.418-0.278,0.914-0.443,1.45-0.443c1.481,0,2.683,1.229,2.683,2.746
			c0,0.524-0.152,1.01-0.403,1.428l1.813,1.812c0.747,0.747,1.781,0.924,2.308,0.398l15.363-15.362
			C26.224,9.808,26.046,8.775,25.299,8.027z M10.821,22.345l-7.209-7.208L14.951,3.792l7.21,7.209L10.821,22.345z"/>
		
			<rect x="9.402" y="6.703" transform="matrix(-0.7071 -0.7071 0.7071 -0.7071 12.759 31.4218)" fill="#010101" width="6.97" height="12.731"/>
	</g>
</g>
</svg>
