<?xml version="1.0" encoding="utf-8"?>
<!-- Generator: Adobe Illustrator 16.0.0, SVG Export Plug-In . SVG Version: 6.00 Build 0)  -->
<!DOCTYPE svg PUBLIC "-//W3C//DTD SVG 1.0//EN" "http://www.w3.org/TR/2001/REC-SVG-20010904/DTD/svg10.dtd">
<svg version="1.0" id="Layer_14" xmlns="http://www.w3.org/2000/svg" xmlns:xlink="http://www.w3.org/1999/xlink" x="0px" y="0px"
	 width="50.001px" height="26px" viewBox="0 0 50.001 26" enable-background="new 0 0 50.001 26" xml:space="preserve">
<g>
	<path fill="none" d="M4.316,3.177C3.947,3.271,3.293,3.414,3.898,3.882c0.609,0.472,0.418,1.129,0.885,0.285
		c0.469-0.848,0.373-1.083,0.141-1.319C4.924,2.848,4.689,3.083,4.316,3.177z"/>
	<path fill="none" d="M1.848,3.223c0,0-1.488,1.41-0.65,1.224C2.037,4.258,3.012,3.133,1.848,3.223z"/>
	<path fill="none" d="M7.764,1.439C7.203,1.252,6.602,2.474,6.602,2.474c-0.469,0.797,0,1.174,0.648,1.454
		c0.656,0.281,0.936-0.185,0.656-0.375C7.625,3.368,7.438,3.223,7.719,2.568C7.998,1.91,8.324,1.629,7.764,1.439z"/>
	<path d="M48.059,0.438L48.008,0c0,0-0.365,0.289-0.488,0.591c-0.055,0.018-0.105,0.032-0.166,0.05
		c-0.584,0.333-1.148,0.647-1.705,0.94l-0.119-0.68c0,0-0.438,0.475-0.449,0.97c-0.543,0.273-1.082,0.52-1.617,0.731l-0.107-0.6
		c0,0-0.34,0.373-0.428,0.801c-0.551,0.192-1.107,0.345-1.668,0.451l0.059-0.928c0,0-0.555,0.431-0.676,1.024
		C40.08,3.42,39.508,3.439,38.922,3.4l0.229-0.991c0,0-0.568,0.345-0.828,0.931c-0.412-0.057-0.834-0.138-1.262-0.256
		c-0.207-0.056-0.422-0.109-0.641-0.16c0.037-0.037,0.07-0.07,0.111-0.11c1.602-1.617-2.324-2.735-5.537-2.789
		c-1.643-0.029-1.992,1.158-1.943,2.323c-0.574,0.025-1.129,0.066-1.656,0.124c-0.199-0.543-0.789-1.987-1.32-1.809
		c-0.65,0.22-0.801,0.334-0.072,1.811c0.041,0.059,0.07,0.12,0.107,0.18c-0.529,0.094-1.02,0.205-1.438,0.336
		c-0.102,0.032-0.213,0.063-0.324,0.095c-0.121-0.425-0.734-2.439-1.324-2.2c-0.662,0.266-0.812,0.406-0.117,2.088
		c0.082,0.139,0.146,0.281,0.213,0.423c-0.525,0.115-1.084,0.218-1.67,0.301c-0.041-0.096-0.066-0.152-0.066-0.152
		s-0.742-2.223-1.391-2.003c-0.652,0.216-0.803,0.331-0.076,1.812c0.107,0.157,0.201,0.318,0.287,0.479
		c-1.291,0.106-2.605,0.088-3.768-0.133l0.111-0.329c0,0-0.244,0.082-0.484,0.251c-0.686-0.162-1.301-0.406-1.814-0.744l0.422-0.655
		c0,0-0.537,0.037-0.893,0.316c-0.785-0.63-1.535-1.026-2.217-1.268l0.15-0.563c0,0-0.354,0.147-0.613,0.417
		c-1.004-0.269-1.814-0.216-2.285-0.134C8.711,0.756,8.789,0.282,8.139,0.545C7.438,0.83,6.809,0.69,5.762,0.83
		C4.717,0.97,3.807,1.745,3.807,1.745c-4.404,1.338-3.775,3.949-3.775,3.949C5.344,7.032,5.973,5.552,6.32,5.408
		c0.117-0.047,0.516-0.134,1.012-0.221C7.271,5.377,7.195,5.596,7.115,5.857c-0.578,1.789-3.934,4.221-4.896,5.011
		c0,0-0.449,0.207,0.613,0.722c1.062,0.513,3.016-0.525,3.902-1.385c0.889-0.862,2.227-1.082,2.227-1.082s0.818-0.639,0.926-1.833
		c0.111-1.192,1.662-2,1.012-2.74c-0.078-0.086-0.141-0.151-0.191-0.202c0.008-0.179-0.01-0.359-0.057-0.493
		c-0.127-0.385-0.549-1.482-0.994-1.606c-0.08-0.254-0.16-0.476-0.193-0.559c0.518,0.034,0.977,0.098,1.377,0.183
		c0.037,0.194,0.156,0.409,0.391,0.645l0.137-0.512c1.346,0.386,1.887,0.958,1.887,0.958c0.074,0.063,0.15,0.121,0.223,0.18
		c0,0.179,0.053,0.391,0.184,0.646l0.225-0.349C14.422,3.803,15,4.085,15.6,4.301c-0.025,0.234,0.062,0.514,0.355,0.842l0.219-0.655
		c0.754,0.216,1.525,0.338,2.287,0.396c-0.191,0.001-0.336,0.013-0.324,0.048c0,0-0.887,2.153-1.338,2.252
		c-0.395,0.088-1.049-0.656-1.074,0.053c-0.176,0.154-0.303,0.422-0.303,0.422s-1.027,0.619-1.732,1.167s-1.455-0.425-1.562,0.79
		s0.639,0.932,0.639,0.932s2.125-1.518,3.176-2.027c0.188,0.59,0.449,0.781,0.928,0.951c0.102,0.036,0.215,0.069,0.334,0.099
		c-0.143,0.13-0.914,0.845-1.443,1.461c-0.586,0.675-1.51-0.13-1.379,1.082c0.133,1.211,0.812,0.79,0.812,0.79
		s2.314-2.482,3.047-2.839c0.496-0.24,0.461-0.274,0.229-0.477c0.055-0.051,0.066-0.123,0.02-0.221
		c-0.234-0.483-1.293-0.658-0.492-2.218c0.789-1.545,1.461-2.213,1.471-2.224c0.393,0.003,0.779-0.01,1.148-0.033
		c0.619,2.349-0.561,4.616-0.561,4.616c-0.453,1.068,0.746,0.591,0.746,0.591c1.533-1.804,1.34-3.983,1.004-5.318
		c0.684-0.087,1.271-0.197,1.705-0.293c0.703,2.779-0.605,5.578-0.605,5.578c-0.477,1.239,0.74,0.662,0.74,0.662
		c1.715-2.303,1.391-5.067,1.039-6.532c0.676-0.173,1.32-0.318,1.938-0.439c0.779,2.442-0.484,4.875-0.484,4.875
		c-0.449,1.068,0.752,0.589,0.752,0.589c1.674-1.977,1.281-4.4,0.902-5.672c0.484-0.077,0.947-0.143,1.385-0.193
		c0.135,0.677,0.326,1.19,0.326,1.19s-0.816,4.371,1.344,3.143l0.631-1.915c0.555-0.393-0.756-1.228-0.869-1.563
		c-0.109-0.333,0-1.115,0.996-0.167c0.994,0.951,0.994,0.167,0.994,0.167c0.533-0.694,0.998-0.917,1.381-0.925l0.238,0.083
		c0.131,0.039,0.258,0.072,0.385,0.108c0.312,0.21,0.486,0.51,0.486,0.51s-0.084,0.233,0.484-0.259
		c0.938,0.213,1.816,0.332,2.639,0.38c0.035,0.256,0.143,0.533,0.359,0.832l0.186-0.81c0.697,0.015,1.35-0.025,1.961-0.102
		c0.084,0.191,0.229,0.388,0.461,0.586l0.041-0.66c0.689-0.115,1.316-0.275,1.883-0.465c0.119,0.135,0.305,0.257,0.576,0.353
		l-0.092-0.526c0.695-0.266,1.285-0.564,1.77-0.847c0.119,0.104,0.277,0.199,0.496,0.277L45.76,2.223
		c0.566-0.36,0.943-0.661,1.129-0.783c0,0,0.352-0.155,0.838-0.328c0.105,0.053,0.24,0.096,0.428,0.126l-0.031-0.258
		c0.617-0.196,1.34-0.37,1.857-0.316C49.98,0.663,50.336-0.154,48.059,0.438z M1.197,4.446c-0.838,0.186,0.65-1.224,0.65-1.224
		C3.012,3.133,2.037,4.258,1.197,4.446z M4.783,4.167C4.316,5.011,4.508,4.354,3.898,3.882C3.293,3.414,3.947,3.271,4.316,3.177
		c0.373-0.094,0.607-0.329,0.607-0.329C5.156,3.083,5.252,3.319,4.783,4.167z M7.906,3.554c0.279,0.189,0,0.656-0.656,0.375
		c-0.648-0.28-1.117-0.657-0.648-1.454c0,0,0.602-1.222,1.162-1.035C8.324,1.629,7.998,1.91,7.719,2.568
		C7.438,3.223,7.625,3.368,7.906,3.554z"/>
	<path d="M34.004,11.136c-0.369-0.519,0.918-5.688,0.918-5.97c0-0.283,0.188-0.703-0.697-0.94c-0.885-0.233-0.842,1.081-0.842,1.081
		c0,4.889-0.631,5.169-1.004,6.487c-0.385,1.355,0.541,0.984,0.541,0.984C33.664,12.828,34.379,11.651,34.004,11.136z"/>
	<path d="M31.404,17.097c-0.26,0.205-0.619,0.07-0.619,0.07c-0.266-0.551-1.08-0.363-0.785,0.289c0.229,0.497-0.09,1.269-0.09,1.269
		c-0.053,0.037-0.271,1.575-1.545,2.896c-1.273,1.323-2.938,0.284-2.938,0.284c-0.619-0.451-1.305,1.36-1.383,1.547
		c0.023,0.011,0.814,0.378,1.314-0.219c0.689-0.824,2.725,0.09,3.416,0.721c0,0,1.033,0.558,0.793-0.242
		c-0.295-0.989,0.469-1.273,0.469-1.273c0.533-0.13,0.457-0.451,0.312-0.843c-0.143-0.398,0.049,0.115,0.207-0.86
		c0.156-0.976,1.061-1.929,1.086-2.854C31.66,17.207,31.66,16.887,31.404,17.097z"/>
	<path d="M30.771,8.664c-0.623,0.703-1.545,0.151-1.545,0.151c-0.973,0.887-0.254,0.308,0.453,1.823
		c0.705,1.511,0.018,2.758,0.4,4.235c0.379,1.481,1.582,0.51,1.582,0.51s-0.238-1.791-0.318-3.013
		c-0.082-1.226-0.199-2.123,0.328-2.945C32.199,8.603,31.4,7.962,30.771,8.664z"/>
	<path d="M40.553,21.475c-0.129-0.976,0.455-2.157,0.211-3.052c-0.172-0.645-0.266-0.952-0.451-0.675
		c-0.186,0.271-0.57,0.25-0.57,0.25c-0.414-0.45-1.137-0.03-0.664,0.505c0.359,0.409,0.277,1.245,0.277,1.245
		c-0.041,0.049,0.195,1.582-0.639,3.222c-0.836,1.639-2.729,1.132-2.729,1.132c-0.723-0.246-0.855,1.686-0.879,1.889
		c0.025,0.004,0.891,0.122,1.197-0.592c0.422-0.994,2.631-0.717,3.475-0.319c0,0,1.152,0.231,0.689-0.464
		c-0.566-0.858,0.082-1.351,0.082-1.351c0.471-0.282,0.311-0.571,0.057-0.908C40.355,22.026,40.691,22.458,40.553,21.475z"/>
	<path d="M38.496,17.043c1.27,0.829,1.512-0.701,1.512-0.701s-1.375-1.161-2.248-2.011c-0.879-0.846-1.564-1.427-1.725-2.394
		c-0.158-0.969-1.182-0.896-1.176,0.044c0.01,0.944-1.039,1.167-1.039,1.167c-0.129,1.319,0.018,0.396,1.549,1.033
		C36.904,14.821,37.23,16.209,38.496,17.043z"/>
</g>
</svg>
