<svg class="svg-buttons" version="1.0" xmlns="http://www.w3.org/2000/svg" xmlns:xlink="http://www.w3.org/1999/xlink" x="0px" y="0px" width="40px"
	 height="40px" viewBox="0 0 40 40" enable-background="new 0 0 40 40" xml:space="preserve">
	<circle class="stroke" fill="#FF0049" cx="20" cy="20" r="20"/>
	<circle class="fill" fill="#001FFF" cx="20" cy="20" r="16"/>
	<rect class="vertical icon" x="19" y="14" display="inline" fill="#FFFFFF" width="2" height="12"/>
	<rect class="horiz icon" x="14" y="19" display="inline" fill="#FFFFFF" width="12" height="2"/>
	<polygon class="arrow icon" fill="#FFFFFF" points="19.028,14.527 20.859,14.527 16.037,19.321 26.451,19.321 26.451,20.678 16.037,20.678 
			20.859,25.473 19.028,25.473 13.548,19.992"/>
	<path class="reset icon" fill="#FFFFFF" d="M19.5,26c3.032,0,5.5-2.537,5.5-5.658c0-0.428-0.046-0.855-0.139-1.269l-1.104,0.348
	c0.061,0.302,0.092,0.611,0.092,0.921c0,2.467-1.952,4.473-4.348,4.473c-2.397,0-4.349-2.006-4.349-4.473
	c0-2.302,1.688-4.208,3.93-4.432l0.421-0.042v0.436v1.385l1.974-1.172l1.974-1.172l-1.974-1.172L19.502,13v1.309v0.37l-0.359,0.024
	C16.26,14.895,14,17.372,14,20.342C14,23.463,16.467,26,19.5,26z"/>
</svg>
