<svg version="1.0" xmlns="http://www.w3.org/2000/svg" xmlns:xlink="http://www.w3.org/1999/xlink" x="0px" y="0px"
	 width="74px" height="97px" viewBox="0 0 74 97" enable-background="new 0 0 74 97" xml:space="preserve">
<g>
	<path fill="#d4d4d4" d="M73.998,71.994c-0.332-1.312-0.436-2.746-1.055-3.908c-0.891-1.682-1.943-3.381-3.297-4.693
		c-4.584-4.453-9.332-8.742-14.018-13.093c-1.201-1.114-2.418-2.215-3.604-3.347c-0.193-0.184-0.365-0.484-0.387-0.744
		c-0.238-2.836-0.432-5.676-0.666-8.513c-0.244-2.966-0.535-5.929-0.779-8.896c-0.248-3.001-0.508-6-0.678-9.006
		c-0.131-2.308-1.17-3.837-3.188-4.399c-2.428-0.677-4.98,1.216-5.096,3.734c-0.27,5.957-0.586,11.911-0.855,17.867
		c-0.203,4.484-0.348,8.972-0.553,13.455c-0.131,2.879-0.293,5.756-0.5,8.629c-0.27,3.734-4.783,7.447-9.473,4.613
		c-1.799-1.09-3.335-2.619-4.958-3.986c-1.328-1.119-2.595-2.311-3.91-3.445c-2.414-2.082-6.614-1.668-8.647,0.805
		c-0.372,0.451-0.2,0.717,0.065,1.098c3.551,5.096,7.083,10.203,10.629,15.301c4.629,6.654,9.244,13.32,13.917,19.943
		c1.634,2.318,3.876,3.623,6.813,3.592c6.82-0.066,13.641-0.072,20.461-0.158c3.359-0.045,6.664-2.758,7.289-6.061
		c0.504-2.654,0.795-5.352,1.164-8.031c0.365-2.648,0.713-5.299,1.066-7.949c0.096-0.74,0.174-1.477,0.26-2.217
		C74,72.387,74,72.189,73.998,71.994"/>
	<path fill="#d4d4d4" d="M36.704,17.332c-1.016-0.993-1.959-1.917-2.904-2.84c1.294-1.296,2.536-2.54,3.737-3.741
		c-0.9-0.891-1.734-1.716-2.587-2.559c-1.171,1.193-2.403,2.448-3.685,3.752c-0.967-1.011-1.894-1.979-2.82-2.947
		C28.39,9.034,28.336,9.072,28.28,9.11c0.016,2.741,0.031,5.481,0.046,8.268C31.07,17.362,33.817,17.347,36.704,17.332"/>
	<path fill="#d4d4d4" d="M37.3,0.046c1.016,0.993,1.959,1.917,2.903,2.84c-1.291,1.296-2.535,2.54-3.736,3.741
		c0.901,0.891,1.736,1.715,2.585,2.559c1.174-1.194,2.404-2.448,3.688-3.752c0.967,1.01,1.893,1.979,2.818,2.947
		c0.057-0.038,0.111-0.076,0.166-0.114c-0.016-2.74-0.031-5.48-0.047-8.267C42.934,0.016,40.188,0.03,37.3,0.046"/>
	<path fill="#d4d4d4" d="M8.423,60.279c-1.015-0.996-1.959-1.918-2.904-2.842c1.294-1.295,2.536-2.541,3.735-3.74
		c-0.899-0.891-1.732-1.717-2.583-2.559c-1.173,1.193-2.406,2.447-3.687,3.752c-0.967-1.012-1.894-1.979-2.821-2.947
		C0.109,51.98,0.055,52.018,0,52.057c0.016,2.74,0.03,5.48,0.046,8.268C2.79,60.309,5.537,60.293,8.423,60.279"/>
	<path fill="#d4d4d4" d="M9.02,42.993c1.016,0.993,1.96,1.916,2.904,2.839c-1.294,1.296-2.536,2.541-3.735,3.743
		c0.898,0.888,1.732,1.714,2.584,2.558c1.172-1.193,2.405-2.448,3.686-3.752c0.967,1.01,1.894,1.978,2.821,2.945
		c0.055-0.037,0.109-0.074,0.164-0.113c-0.015-2.739-0.03-5.479-0.046-8.266C14.654,42.961,11.907,42.977,9.02,42.993"/>
</g>
</svg>
