<svg version="1.0" xmlns="http://www.w3.org/2000/svg" xmlns:xlink="http://www.w3.org/1999/xlink" x="0px" y="0px" viewBox="0 0 42 48" enable-background="new 0 0 42 48" xml:space="preserve">
<path fill="#006AD0" d="M20.943,48c0,0-13.614-12.42-16.16-15.755C2.236,28.909,0,24.471,0,19.708C0,8.823,9.377,0,20.943,0h0.113
	C32.623,0,42,8.823,42,19.708c0,4.763-2.236,9.201-4.783,12.537C34.67,35.58,21.057,48,21.057,48H20.943z"/>
<path fill="#FFFFFF" d="M27.857,17.167c0,0.669-0.576,1.213-1.287,1.213h-11.14c-0.711,0-1.288-0.543-1.288-1.213l0,0
	c0-0.669,0.577-1.212,1.288-1.212h11.14C27.281,15.955,27.857,16.499,27.857,17.167L27.857,17.167z"/>
<path fill="#FFFFFF" d="M27.857,22.061c0,0.669-0.576,1.212-1.287,1.212h-11.14c-0.711,0-1.288-0.543-1.288-1.212l0,0
	c0-0.669,0.577-1.213,1.288-1.213h11.14C27.281,20.848,27.857,21.391,27.857,22.061L27.857,22.061z"/>
</svg>
