<svg xmlns="http://www.w3.org/2000/svg" xmlns:xlink="http://www.w3.org/1999/xlink">
	<path class="background-drop" fill="rgba(255,255,255,0)" d="M24.93164,58c0,0-16.20654-15.00781-19.2373-19.03711C2.66162,34.93262,0,29.56934,0,23.81396
		C0,10.66162,11.16309,0,24.93164,0h0.13477C38.83691,0,50,10.66162,50,23.81396c0,5.75537-2.66211,11.11865-5.69434,15.14893
		C41.27344,42.99219,25.06836,58,25.06836,58H24.93164z"/>
	<path fill="#006AD0" d="M24.94287,52c0,0-13.61377-12.41992-16.15967-15.75488C6.23584,32.90918,4,28.47119,4,23.70801
		C4,12.82324,13.37695,4,24.94287,4h0.11377C36.62305,4,46,12.82324,46,23.70801c0,4.76318-2.23633,9.20117-4.7832,12.53711
		C38.66992,39.58008,25.05664,52,25.05664,52H24.94287z"/>
	<path fill="#FFFFFF" d="M31.85742,21.16699c0,0.66895-0.57617,1.21289-1.28711,1.21289H19.43018
		c-0.71143,0-1.28809-0.54297-1.28809-1.21289l0,0c0-0.66895,0.57666-1.21191,1.28809-1.21191h11.14014
		C31.28125,19.95508,31.85742,20.49902,31.85742,21.16699L31.85742,21.16699z"/>
	<path fill="#FFFFFF" d="M31.85742,26.06104c0,0.66895-0.57617,1.21191-1.28711,1.21191H19.43018
		c-0.71143,0-1.28809-0.54297-1.28809-1.21191l0,0c0-0.66895,0.57666-1.21289,1.28809-1.21289h11.14014
		C31.28125,24.84814,31.85742,25.39111,31.85742,26.06104L31.85742,26.06104z"/>
</svg>
