<svg xmlns="http://www.w3.org/2000/svg" xmlns:xlink="http://www.w3.org/1999/xlink">
<path class="stroke" fill="rgba(255,255,255,0)" d="M25.431,65c0,0-16.531-19.441-19.623-23.713C2.715,37.018,0,31.333,0,25.235C0,11.298,9.555,0,25.569,0
	C41.584,0,51,11.298,51,25.235c0,6.098-2.716,11.782-5.808,16.052C42.101,45.559,25.569,65,25.569,65H25.431z"/>
<path class="fill" fill="rgba(0,0,0,0)" d="M25.442,58.905c0,0-13.938-16.392-16.544-19.993C6.29,35.312,4,30.52,4,25.379
	C4,13.627,12.057,4.103,25.559,4.103S47,13.627,47,25.379c0,5.141-2.291,9.934-4.896,13.533
	c-2.607,3.602-16.545,19.993-16.545,19.993H25.442z"/>
<ellipse fill="#FFFFFF" cx="25.5" cy="24.77" rx="7.732" ry="7.672"/>
</svg>
