<?xml version="1.0" encoding="utf-8"?>
<!-- Generator: Adobe Illustrator 16.0.0, SVG Export Plug-In . SVG Version: 6.00 Build 0)  -->
<!DOCTYPE svg PUBLIC "-//W3C//DTD SVG 1.0//EN" "http://www.w3.org/TR/2001/REC-SVG-20010904/DTD/svg10.dtd">
<svg version="1.0" id="Layer_1" xmlns="http://www.w3.org/2000/svg" xmlns:xlink="http://www.w3.org/1999/xlink" x="0px" y="0px"
	 width="11px" height="13px" viewBox="0 0 11 13" enable-background="new 0 0 11 13" xml:space="preserve">
<path fill="#FFFFFF" d="M5.5,13C2.467,13,0,10.463,0,7.342c0-0.428,0.047-0.854,0.14-1.269L1.244,6.42
	C1.182,6.723,1.152,7.031,1.152,7.342c0,2.467,1.951,4.475,4.348,4.475c2.397,0,4.348-2.008,4.348-4.475
	c0-2.302-1.689-4.208-3.929-4.432L5.498,2.868v0.436v1.385L3.523,3.517L1.55,2.344l1.973-1.172L5.498,0v1.31v0.37l0.359,0.023
	C8.74,1.895,11,4.372,11,7.342C11,10.463,8.533,13,5.5,13z"/>
</svg>
