<svg version="1.0" xmlns="http://www.w3.org/2000/svg" xmlns:xlink="http://www.w3.org/1999/xlink" x="0px" y="0px" width="98px"
	 height="60px" viewBox="0 0 98 60" enable-background="new 0 0 98 60" xml:space="preserve">
<g class="stroke">
	<path fill="#8CC7F3" d="M75.581,60H0V21.538C0,9.461,9.654,0,21.978,0H98v38.001C98,49.926,87.733,60,75.581,60z"/>
</g>
<g class="fill">
	<path fill="#006AD0" d="M4,21.538V56h71.581C85.565,56,94,47.758,94,38.001V4H21.978C11.897,4,4,11.703,4,21.538z"/>
</g>
<g>
	<g>
		<path fill="#FFFFFF" d="M35.182,37.04l-4.221-5.962h-1.42V36.9h-1.88V23.097h3.761c2.82,0,4.581,1.4,4.581,3.92
			c0,2.101-1.22,3.341-3.021,3.82l4.101,5.781L35.182,37.04z M31.341,24.757h-1.801v4.741h1.601c1.82,0,2.98-0.82,2.98-2.381
			C34.122,25.618,33.182,24.757,31.341,24.757z"/>
		<path fill="#FFFFFF" d="M41.721,37.1c-2.48,0-4.421-1.5-4.421-5.001c0-3.061,1.8-4.941,4.201-4.941
			c2.78,0,4.061,2.141,4.061,4.782v0.379h-6.481c0.06,2.221,1.12,3.262,2.781,3.262c1.38,0,2.38-0.541,3.421-1.361l0.26,1.602
			C44.521,36.619,43.302,37.1,41.721,37.1z M39.161,30.979h4.601c-0.221-1.54-0.9-2.42-2.281-2.42
			C40.381,28.558,39.44,29.358,39.161,30.979z"/>
		<path fill="#FFFFFF" d="M50.121,37.1c-1.26,0-2.66-0.439-3.48-0.9l0.26-1.68c0.9,0.62,2.061,1.1,3.361,1.1
			c1.22,0,1.94-0.459,1.94-1.26c0-0.881-0.541-1.2-2.261-1.62c-2.24-0.561-3.141-1.241-3.141-2.941c0-1.521,1.28-2.641,3.36-2.641
			c1.181,0,2.24,0.24,3.141,0.64l-0.28,1.681c-0.84-0.48-1.9-0.82-2.9-0.82c-1.08,0-1.641,0.42-1.641,1.1c0,0.64,0.48,1,1.98,1.38
			c2.361,0.6,3.421,1.28,3.421,3.101C53.882,35.979,52.582,37.1,50.121,37.1z"/>
		<path fill="#FFFFFF" d="M59.341,37.1c-2.48,0-4.421-1.5-4.421-5.001c0-3.061,1.8-4.941,4.201-4.941
			c2.78,0,4.061,2.141,4.061,4.782v0.379H56.7c0.06,2.221,1.12,3.262,2.78,3.262c1.381,0,2.381-0.541,3.421-1.361l0.26,1.602
			C62.142,36.619,60.921,37.1,59.341,37.1z M56.78,30.979h4.601c-0.22-1.54-0.9-2.42-2.28-2.42
			C58,28.558,57.061,29.358,56.78,30.979z"/>
		<path fill="#FFFFFF" d="M68.08,37.061c-1.68,0-2.78-0.601-2.78-2.521v-5.681h-1.44v-1.5h1.44v-3.181l1.74-0.26v3.441h2.061
			l0.24,1.5H67.04v5.36c0,0.781,0.32,1.261,1.32,1.261c0.32,0,0.601-0.021,0.82-0.06l0.24,1.52C69.121,37,68.7,37.061,68.08,37.061z
			"/>
	</g>
</g>
</svg>
