<svg version="1.0" xmlns="http://www.w3.org/2000/svg" xmlns:xlink="http://www.w3.org/1999/xlink" x="0px" y="0px"
	 width="40px" height="58px" viewBox="0 0 40 58" enable-background="new 0 0 40 58" xml:space="preserve">
	<path fill="#FFFFFF" d="M20.371,5.91c7.882,0,14.289,6.476,14.289,14.463c0,7.967-6.406,14.441-14.289,14.441
		c-7.902,0-14.309-6.476-14.309-14.441C6.061,12.386,12.467,5.91,20.371,5.91z"/>
	<path fill="#F26F2B" d="M0,20.222C0,9.066,8.945,0.007,20,0.007c11.038,0,20,9.059,20,20.215c0,3.988-1.157,7.701-3.111,10.83
		L20,58.007L3.112,31.052C1.139,27.923,0,24.21,0,20.222z M31.529,19.999c0-6.446-5.17-11.672-11.53-11.672
		c-6.377,0-11.547,5.226-11.547,11.672c0,6.429,5.17,11.653,11.547,11.653C26.359,31.652,31.529,26.428,31.529,19.999z"/>
</svg>
